<svg width="532" height="91" viewBox="0 0 532 91" fill="none" xmlns="http://www.w3.org/2000/svg">
<g filter="url(#filter0_d_20_10)">
<path d="M37.875 58.3125V70.125H14.0781V58.3125H37.875ZM19.2812 1.875V70.125H4V1.875H19.2812ZM45.7188 29.3438V40.7812H14.0781V29.3438H45.7188ZM37.875 1.875V13.7344H14.0781V1.875H37.875Z" fill="white"/>
<path d="M91.625 1.875H106.906V46.6875C106.906 52 105.781 56.4688 103.531 60.0938C101.312 63.7188 98.2188 66.4531 94.25 68.2969C90.2812 70.1406 85.6875 71.0625 80.4688 71.0625C75.2188 71.0625 70.5938 70.1406 66.5938 68.2969C62.625 66.4531 59.5 63.7188 57.2188 60.0938C54.9688 56.4688 53.8438 52 53.8438 46.6875V13.7344H69.1719V46.6875C69.1719 49.625 69.6094 52.0312 70.4844 53.9062C71.3906 55.75 72.6875 57.1094 74.375 57.9844C76.0625 58.8281 78.0938 59.25 80.4688 59.25C82.8438 59.25 84.8594 58.8281 86.5156 57.9844C88.2031 57.1094 89.4688 55.75 90.3125 53.9062C91.1875 52.0312 91.625 49.625 91.625 46.6875V1.875Z" fill="white"/>
<path d="M115.734 1.875H141.938C147.156 1.875 151.672 2.65625 155.484 4.21875C159.328 5.78125 162.281 8.09375 164.344 11.1562C166.406 14.2188 167.438 18 167.438 22.5C167.438 26.25 166.828 29.4375 165.609 32.0625C164.391 34.6875 162.672 36.8594 160.453 38.5781C158.266 40.2969 155.703 41.6875 152.766 42.75L147.797 45.4688H131.016V33.7969L141.984 33.6094C144.266 33.6094 146.156 33.2031 147.656 32.3906C149.156 31.5781 150.281 30.4375 151.031 28.9688C151.812 27.4688 152.203 25.7188 152.203 23.7188C152.203 21.6562 151.812 19.875 151.031 18.375C150.25 16.875 149.094 15.7344 147.562 14.9531C146.062 14.1406 144.188 13.7344 141.938 13.7344H131.016V70.125H115.734V36V33.7969H131.016V13.7344H115.734V1.875ZM153.516 70.125L138.188 39.7969L154.312 39.75L169.875 69.4219V70.125H153.516Z" fill="white"/>
<path d="M200.156 1.875V70.125H184.922V1.875H200.156Z" fill="white"/>
<path d="M246.547 51.1875C246.547 50.0312 246.375 49 246.031 48.0938C245.688 47.1562 245.062 46.2969 244.156 45.5156C243.25 44.7344 241.969 43.9531 240.312 43.1719C238.656 42.3594 236.484 41.5312 233.797 40.6875C230.734 39.6875 227.812 38.5625 225.031 37.3125C222.281 36.0312 219.828 34.5469 217.672 32.8594C215.516 31.1719 213.812 29.2031 212.562 26.9531C211.344 24.7031 210.734 22.0781 210.734 19.0781C210.734 16.1719 211.375 13.5469 212.656 11.2031C213.938 8.85938 215.734 6.85938 218.047 5.20312C220.359 3.51562 223.078 2.23438 226.203 1.35938C229.328 0.453125 232.766 0 236.516 0C241.516 0 245.906 0.890625 249.688 2.67188C253.5 4.42188 256.469 6.89062 258.594 10.0781C260.719 13.2344 261.781 16.9062 261.781 21.0938H246.594C246.594 19.25 246.203 17.625 245.422 16.2188C244.672 14.7812 243.516 13.6562 241.953 12.8438C240.422 12.0312 238.5 11.625 236.188 11.625C233.938 11.625 232.047 11.9688 230.516 12.6562C229.016 13.3125 227.875 14.2188 227.094 15.375C226.344 16.5312 225.969 17.7969 225.969 19.1719C225.969 20.2656 226.25 21.2656 226.812 22.1719C227.406 23.0469 228.25 23.875 229.344 24.6562C230.469 25.4062 231.844 26.125 233.469 26.8125C235.094 27.5 236.953 28.1562 239.047 28.7812C242.703 29.9375 245.938 31.2188 248.75 32.625C251.594 34.0312 253.984 35.625 255.922 37.4062C257.859 39.1875 259.312 41.2031 260.281 43.4531C261.281 45.7031 261.781 48.25 261.781 51.0938C261.781 54.125 261.188 56.8125 260 59.1562C258.844 61.5 257.156 63.5 254.938 65.1562C252.75 66.7812 250.125 68.0156 247.062 68.8594C244 69.7031 240.578 70.125 236.797 70.125C233.359 70.125 230.203 69.5788 230.203 69.5788V57.8325C230.203 57.8325 234.828 58.5469 236.797 58.5469C239.078 58.5469 240.922 58.2344 242.328 57.6094C243.766 56.9531 244.828 56.0625 245.516 54.9375C246.203 53.8125 246.547 52.5625 246.547 51.1875Z" fill="white"/>
<path d="M302.234 21.8438V68.8594H287V21.8438H302.234ZM323 0.609375V12.4688H266.656V0.609375H323Z" fill="white"/>
<path d="M348.469 1.875V70.125H333.234V1.875H348.469Z" fill="white"/>
<path d="M417.234 59.0625V71.0625H412.734H404.234C404.234 71.0625 394.891 71.0625 389.297 71.0625C384.828 71.0625 380.828 70.2969 377.297 68.7656C373.766 67.2344 370.766 65.0469 368.297 62.2031C365.859 59.3281 363.984 55.875 362.672 51.8438C361.391 47.7812 360.75 43.2031 360.75 38.1094V33.9375C360.75 28.8438 361.422 24.2656 362.766 20.2031C364.109 16.1406 366.031 12.6719 368.531 9.79688C371.031 6.92188 374.031 4.71875 377.531 3.1875C381.031 1.65625 384.938 0.890625 389.25 0.890625C395.062 0.890625 404.234 0.890625 404.234 0.890625H417.141L417.234 25.1719H404.234C404.109 22.5156 404.234 17.9062 404.234 17.9062V13.125C404.234 13.125 392.234 12.8906 389.25 13.625C387.234 14.125 386.734 14.125 384.734 15.125C382.734 16.125 382.234 17.125 380.734 18.625C379.45 19.9091 377.547 21.8125 377.016 24.4688C376.484 27.0938 376.219 30.2188 376.219 33.8438V38.1094C376.219 41.7031 376.453 44.8125 376.922 47.4375C377.391 50.0625 379.066 51.9565 380.734 53.625C382.234 55.125 383.078 55.7812 384.734 56.625C386.391 57.4688 386.734 58.125 389.234 58.625C392.234 59.0625 396.234 59.0625 396.234 59.0625H404.234H417.234Z" fill="white"/>
<rect x="173.734" y="58.125" width="37" height="12" fill="white"/>
<rect x="322.734" y="58.125" width="37" height="12" fill="white"/>
<path fill-rule="evenodd" clip-rule="evenodd" d="M486.777 70.625L454.734 0.125L422.691 70.625H437.322L455.234 34.125L473.147 70.625H486.777Z" fill="white"/>
<path d="M506.413 16.7905H502.734V1.56299L505.853 1.56299L513.391 8.67725C514.158 9.34326 514.834 9.87305 515.419 10.2666C516.004 10.6702 516.534 10.9629 517.008 11.1445C517.493 11.3262 517.937 11.417 518.34 11.417C518.996 11.417 519.551 11.311 520.005 11.0991C520.459 10.8973 520.808 10.5996 521.05 10.2061C521.292 9.8125 521.413 9.33317 521.413 8.76807C521.413 8.1626 521.257 7.6429 520.944 7.20898C520.631 6.77507 520.197 6.44206 519.642 6.20996C519.097 5.97786 518.477 5.86182 517.78 5.86182V1.10889C519.122 1.10889 520.343 1.4318 521.443 2.07764C522.553 2.72347 523.436 3.62663 524.092 4.78711C524.758 5.94759 525.091 7.30485 525.091 8.85889C525.091 10.4533 524.839 11.7904 524.334 12.8701C523.83 13.9499 523.108 14.7673 522.17 15.3223C521.231 15.8773 520.101 16.1548 518.779 16.1548C518.033 16.1548 517.311 16.0337 516.615 15.7915C515.918 15.5594 515.227 15.2214 514.541 14.7773C513.855 14.3333 513.153 13.7985 512.437 13.1729C511.731 12.5472 510.984 11.8408 510.197 11.0537L506.413 7.72363V16.7905ZM515.722 34.5156H511.801C510.187 34.5156 508.789 34.334 507.608 33.9707C506.428 33.6175 505.454 33.1029 504.687 32.4268C503.92 31.7607 503.35 30.9635 502.977 30.0352C502.613 29.1169 502.432 28.0977 502.432 26.9775C502.432 26.0794 502.548 25.2419 502.78 24.4648C503.012 23.6878 503.37 22.9865 503.854 22.3608C504.349 21.7453 504.965 21.2155 505.701 20.7715C506.438 20.3275 507.316 19.9844 508.335 19.7422C509.354 19.5101 510.51 19.394 511.801 19.394H515.722C517.356 19.394 518.759 19.5706 519.93 19.9238C521.1 20.2871 522.069 20.8068 522.836 21.4829C523.603 22.159 524.168 22.9562 524.531 23.8745C524.895 24.8029 525.076 25.8271 525.076 26.9473C525.076 27.8454 524.96 28.6779 524.728 29.4448C524.496 30.2218 524.138 30.9232 523.653 31.5488C523.169 32.1745 522.558 32.7043 521.822 33.1382C521.085 33.5822 520.207 33.9202 519.188 34.1523C518.179 34.3945 517.023 34.5156 515.722 34.5156ZM511.211 29.793H516.342C517.099 29.793 517.755 29.7476 518.31 29.6567C518.875 29.576 519.354 29.4549 519.748 29.2935C520.142 29.1421 520.459 28.9504 520.702 28.7183C520.944 28.4862 521.12 28.2188 521.231 27.916C521.353 27.6234 521.413 27.3005 521.413 26.9473C521.413 26.5033 521.322 26.1047 521.141 25.7515C520.959 25.3983 520.671 25.1006 520.278 24.8584C519.894 24.6162 519.375 24.4295 518.719 24.2983C518.073 24.1772 517.281 24.1167 516.342 24.1167H511.211C510.454 24.1167 509.793 24.1571 509.228 24.2378C508.663 24.3286 508.179 24.4497 507.775 24.6011C507.381 24.7625 507.058 24.9593 506.806 25.1914C506.564 25.4235 506.387 25.6909 506.276 25.9937C506.165 26.2964 506.11 26.6243 506.11 26.9775C506.11 27.4215 506.196 27.8151 506.367 28.1582C506.549 28.5013 506.836 28.7939 507.23 29.0361C507.634 29.2884 508.163 29.4751 508.819 29.5962C509.475 29.7274 510.272 29.793 511.211 29.793ZM506.413 52.5737H502.734V37.3462H505.853L513.391 44.4604C514.158 45.1265 514.834 45.6562 515.419 46.0498C516.004 46.4535 516.534 46.7461 517.008 46.9277C517.493 47.1094 517.937 47.2002 518.34 47.2002C518.996 47.2002 519.551 47.0942 520.005 46.8823C520.459 46.6805 520.808 46.3828 521.05 45.9893C521.292 45.5957 521.413 45.1164 521.413 44.5513C521.413 43.9458 521.257 43.4261 520.944 42.9922C520.631 42.5583 520.197 42.2253 519.642 41.9932C519.097 41.7611 518.477 41.645 517.78 41.645V36.8921C519.122 36.8921 520.343 37.215 521.443 37.8608C522.553 38.5067 523.436 39.4098 524.092 40.5703C524.758 41.7308 525.091 43.0881 525.091 44.6421C525.091 46.2365 524.839 47.5736 524.334 48.6533C523.83 49.7331 523.108 50.5505 522.17 51.1055C521.231 51.6605 520.101 51.938 518.779 51.938C518.033 51.938 517.311 51.8169 516.615 51.5747C515.918 51.3426 515.227 51.0046 514.541 50.5605C513.855 50.1165 513.153 49.5817 512.437 48.9561C511.731 48.3304 510.984 47.624 510.197 46.8369L506.413 43.5068V52.5737ZM515.767 59.7939V62.2007C515.767 62.8869 515.888 63.452 516.13 63.896C516.373 64.3501 516.716 64.6831 517.16 64.895C517.604 65.117 518.123 65.228 518.719 65.228C519.233 65.228 519.693 65.1271 520.096 64.9253C520.5 64.7235 520.818 64.4157 521.05 64.002C521.292 63.5983 521.413 63.0736 521.413 62.4277C521.413 61.9635 521.317 61.5195 521.125 61.0957C520.944 60.682 520.676 60.3439 520.323 60.0815C519.98 59.8192 519.566 59.688 519.082 59.688V54.9502C520.313 54.9502 521.378 55.2832 522.276 55.9492C523.174 56.6253 523.865 57.5184 524.35 58.6284C524.844 59.7485 525.091 60.9696 525.091 62.2915C525.091 63.8153 524.849 65.1523 524.365 66.3027C523.89 67.4632 523.184 68.3613 522.246 68.9971C521.317 69.6429 520.167 69.9658 518.794 69.9658C518.078 69.9658 517.387 69.7943 516.721 69.4512C516.065 69.1182 515.479 68.6388 514.965 68.0132C514.46 67.3976 514.057 66.661 513.754 65.8032C513.461 64.9556 513.315 64.012 513.315 62.9727V59.7939H515.767ZM512.21 59.7939H514.617V62.9727C514.617 64.123 514.486 65.1523 514.223 66.0605C513.961 66.9688 513.582 67.7407 513.088 68.3765C512.593 69.0122 511.993 69.4966 511.287 69.8296C510.58 70.1626 509.793 70.3291 508.925 70.3291C507.896 70.3291 506.978 70.1273 506.17 69.7236C505.363 69.32 504.682 68.7549 504.127 68.0283C503.572 67.3018 503.148 66.4491 502.855 65.4702C502.573 64.4914 502.432 63.4318 502.432 62.2915C502.432 61.3732 502.558 60.46 502.81 59.5518C503.062 58.6436 503.446 57.8211 503.96 57.0845C504.485 56.3478 505.146 55.7575 505.943 55.3135C506.751 54.8695 507.709 54.6475 508.819 54.6475V59.3853C508.305 59.3853 507.84 59.5164 507.427 59.7788C507.023 60.0513 506.7 60.4196 506.458 60.8838C506.226 61.3581 506.11 61.8727 506.11 62.4277C506.11 63.0938 506.231 63.6589 506.473 64.123C506.725 64.5973 507.069 64.9556 507.502 65.1978C507.936 65.45 508.436 65.5762 509.001 65.5762C509.768 65.5762 510.383 65.4399 510.848 65.1675C511.322 64.9051 511.665 64.5216 511.877 64.0171C512.099 63.5125 512.21 62.9071 512.21 62.2007V59.7939Z" fill="white"/>
<path d="M506.413 16.7905V17.7905H507.413V16.7905H506.413ZM502.734 16.7905H501.734V17.7905H502.734V16.7905ZM502.734 1.56299V0.562988L501.734 0.562988V1.56299L502.734 1.56299ZM505.853 1.56299L506.539 0.835732L506.25 0.562988H505.853V1.56299ZM513.391 8.67725L512.704 9.4045L512.719 9.41871L512.735 9.43228L513.391 8.67725ZM515.419 10.2666L515.987 9.44333L515.977 9.43676L515.419 10.2666ZM517.008 11.1445L516.651 12.0784L516.657 12.0809L517.008 11.1445ZM520.005 11.0991L519.599 10.1853L519.591 10.189L519.582 10.1929L520.005 11.0991ZM519.642 6.20996L519.25 7.13L519.256 7.13254L519.642 6.20996ZM517.78 5.86182H516.78V6.86182H517.78V5.86182ZM517.78 1.10889V0.108887L516.78 0.108887V1.10889L517.78 1.10889ZM521.443 2.07764L520.937 2.93998L520.94 2.94199L521.443 2.07764ZM524.092 4.78711L523.222 5.27918L523.225 5.28487L524.092 4.78711ZM522.17 15.3223L521.661 14.4615L522.17 15.3223ZM516.615 15.7915L516.943 14.8469L516.931 14.8428L516.615 15.7915ZM512.437 13.1729L511.774 13.9215L511.779 13.9261L512.437 13.1729ZM510.197 11.0537L510.904 10.3466L510.881 10.3241L510.857 10.303L510.197 11.0537ZM506.413 7.72363L507.073 6.97292L505.413 5.51157V7.72363H506.413ZM506.413 15.7905H502.734V17.7905H506.413V15.7905ZM503.734 16.7905V1.56299L501.734 1.56299V16.7905H503.734ZM502.734 2.56299H505.853V0.562988L502.734 0.562988V2.56299ZM505.166 2.29024L512.704 9.4045L514.077 7.94999L506.539 0.835732L505.166 2.29024ZM512.735 9.43228C513.521 10.1146 514.23 10.6724 514.861 11.0964L515.977 9.43676C515.437 9.07365 514.794 8.57193 514.046 7.92221L512.735 9.43228ZM514.851 11.0898C515.478 11.5221 516.079 11.8596 516.651 12.0784L517.366 10.2107C516.989 10.0662 516.53 9.81839 515.987 9.44339L514.851 11.0898ZM516.657 12.0809C517.224 12.2933 517.788 12.417 518.34 12.417V10.417C518.085 10.417 517.762 10.359 517.359 10.2082L516.657 12.0809ZM518.34 12.417C519.099 12.417 519.807 12.295 520.428 12.0053L519.582 10.1929C519.295 10.3271 518.893 10.417 518.34 10.417V12.417ZM520.412 12.0129C521.035 11.7356 521.545 11.3087 521.901 10.7302L520.198 9.68196C520.07 9.89049 519.884 10.059 519.599 10.1853L520.412 12.0129ZM521.901 10.7302C522.26 10.1472 522.413 9.47695 522.413 8.76807L520.413 8.76807C520.413 9.18939 520.324 9.47781 520.198 9.68196L521.901 10.7302ZM522.413 8.76807C522.413 7.98152 522.206 7.25038 521.755 6.62418L520.133 7.79379C520.307 8.03543 520.413 8.34367 520.413 8.76807L522.413 8.76807ZM521.755 6.62418C521.321 6.02253 520.731 5.58156 520.028 5.28738L519.256 7.13254C519.663 7.30255 519.941 7.5276 520.133 7.79379L521.755 6.62418ZM520.034 5.28994C519.345 4.99664 518.588 4.86182 517.78 4.86182V6.86182C518.365 6.86182 518.849 6.95909 519.25 7.12998L520.034 5.28994ZM518.78 5.86182V1.10889L516.78 1.10889V5.86182H518.78ZM517.78 2.10889C518.954 2.10889 519.999 2.38906 520.937 2.93998L521.95 1.2153C520.688 0.474548 519.291 0.108887 517.78 0.108887V2.10889ZM520.94 2.94199C521.891 3.49507 522.65 4.26708 523.222 5.27917L524.963 4.29505C524.223 2.98617 523.216 1.95187 521.946 1.21329L520.94 2.94199ZM523.225 5.28487C523.791 6.27093 524.091 7.45102 524.091 8.85889H526.091C526.091 7.15868 525.726 5.62425 524.96 4.28935L523.225 5.28487ZM524.091 8.85889C524.091 10.354 523.854 11.5364 523.429 12.4468L525.24 13.2935C525.824 12.0443 526.091 10.5526 526.091 8.85889H524.091ZM523.429 12.4468C523.001 13.3619 522.41 14.0186 521.661 14.4615L522.679 16.183C523.807 15.5159 524.659 14.5379 525.24 13.2935L523.429 12.4468ZM521.661 14.4615C520.906 14.9078 519.96 15.1548 518.779 15.1548V17.1548C520.242 17.1548 521.557 16.8468 522.679 16.183L521.661 14.4615ZM518.779 15.1548C518.143 15.1548 517.533 15.052 516.943 14.847L516.286 16.736C517.09 17.0154 517.922 17.1548 518.779 17.1548V15.1548ZM516.931 14.8428C516.323 14.6402 515.708 14.3411 515.084 13.9378L513.998 15.6169C514.747 16.1016 515.514 16.4786 516.299 16.7402L516.931 14.8428ZM515.084 13.9378C514.444 13.5236 513.781 13.0188 513.095 12.4196L511.779 13.9261C512.526 14.5783 513.266 15.1431 513.998 15.6169L515.084 13.9378ZM513.1 12.4243C512.411 11.8141 511.679 11.1219 510.904 10.3466L509.49 11.7608C510.289 12.5597 511.05 13.2803 511.774 13.9214L513.1 12.4243ZM510.857 10.303L507.073 6.97292L505.752 8.47435L509.536 11.8044L510.857 10.303ZM505.413 7.72363V16.7905H507.413V7.72363H505.413ZM507.608 33.9707L507.902 33.0149L507.895 33.0127L507.608 33.9707ZM504.687 32.4268L505.348 31.6766L505.343 31.6717L504.687 32.4268ZM502.977 30.0352L502.047 30.403L502.049 30.4083L502.977 30.0352ZM503.854 22.3608L503.075 21.7346L503.069 21.7416L503.064 21.7487L503.854 22.3608ZM508.335 19.7422L508.113 18.7671L508.104 18.7693L508.335 19.7422ZM519.93 19.9238L520.226 18.9687L520.219 18.9665L519.93 19.9238ZM522.836 21.4829L523.497 20.7328L522.836 21.4829ZM524.531 23.8745L525.462 23.5101L525.461 23.5066L524.531 23.8745ZM524.728 29.4448L523.771 29.1552L523.77 29.1586L524.728 29.4448ZM521.822 33.1382L521.314 32.2765L521.306 32.2817L521.822 33.1382ZM519.188 34.1523L518.966 33.1772L518.955 33.18L519.188 34.1523ZM518.31 29.6567L518.169 28.6668L518.159 28.6682L518.149 28.6699L518.31 29.6567ZM519.748 29.2935L519.389 28.3601L519.379 28.3641L519.368 28.3683L519.748 29.2935ZM521.231 27.916L520.307 27.5337L520.3 27.5526L520.293 27.5718L521.231 27.916ZM521.141 25.7515L522.03 25.2941L521.141 25.7515ZM520.278 24.8584L519.744 25.7039L519.754 25.7101L520.278 24.8584ZM518.719 24.2983L518.915 23.3177L518.903 23.3155L518.719 24.2983ZM509.228 24.2378L509.087 23.2478L509.078 23.2491L509.069 23.2505L509.228 24.2378ZM507.775 24.6011L507.424 23.6647L507.409 23.6701L507.395 23.6759L507.775 24.6011ZM506.806 25.1914L506.129 24.4555L506.122 24.4624L506.114 24.4694L506.806 25.1914ZM506.367 28.1582L505.473 28.6054L505.478 28.6158L505.483 28.6261L506.367 28.1582ZM507.23 29.0361L507.76 28.1881L507.754 28.1845L507.23 29.0361ZM508.819 29.5962L509.015 28.6156L509.008 28.6142L509.001 28.6128L508.819 29.5962ZM515.722 33.5156H511.801V35.5156H515.722V33.5156ZM511.801 33.5156C510.258 33.5156 508.964 33.3415 507.902 33.0149L507.314 34.9265C508.614 35.3265 510.116 35.5156 511.801 35.5156V33.5156ZM507.895 33.0127C506.825 32.6925 505.987 32.2396 505.348 31.6766L504.026 33.1769C504.921 33.9661 506.031 34.5425 507.322 34.9288L507.895 33.0127ZM505.343 31.6717C504.694 31.108 504.218 30.4411 503.904 29.662L502.049 30.4083C502.482 31.486 503.147 32.4135 504.031 33.1818L505.343 31.6717ZM503.906 29.6673C503.595 28.8808 503.432 27.9885 503.432 26.9775H501.432C501.432 28.2068 501.631 29.353 502.047 30.403L503.906 29.6673ZM503.432 26.9775C503.432 26.1661 503.536 25.4258 503.738 24.751L501.822 24.1786C501.559 25.0579 501.432 25.9928 501.432 26.9775H503.432ZM503.738 24.751C503.936 24.0891 504.238 23.4988 504.645 22.973L503.064 21.7487C502.502 22.4742 502.088 23.2866 501.822 24.1786L503.738 24.751ZM504.634 22.9871C505.049 22.471 505.572 22.0167 506.217 21.6279L505.185 19.915C504.357 20.4143 503.649 21.0196 503.075 21.7346L504.634 22.9871ZM506.217 21.6279C506.849 21.2474 507.626 20.9384 508.566 20.7151L508.104 18.7693C507.005 19.0303 506.027 19.4076 505.185 19.915L506.217 21.6279ZM508.557 20.7172C509.489 20.5051 510.568 20.394 511.801 20.394V18.394C510.452 18.394 509.22 18.5151 508.113 18.7671L508.557 20.7172ZM511.801 20.394H515.722V18.394H511.801V20.394ZM515.722 20.394C517.289 20.394 518.589 20.564 519.641 20.8812L520.219 18.9665C518.929 18.5773 517.424 18.394 515.722 18.394V20.394ZM519.633 20.8789C520.695 21.2085 521.532 21.6669 522.175 22.233L523.497 20.7328C522.606 19.9467 521.505 19.3657 520.226 18.9688L519.633 20.8789ZM522.175 22.233C522.827 22.8085 523.298 23.4762 523.601 24.2424L525.461 23.5066C525.038 22.4362 524.378 21.5095 523.497 20.7328L522.175 22.233ZM523.6 24.2389C523.913 25.0377 524.076 25.9365 524.076 26.9473H526.076C526.076 25.7178 525.876 24.5681 525.462 23.5101L523.6 24.2389ZM524.076 26.9473C524.076 27.7589 523.971 28.4927 523.771 29.1552L525.685 29.7345C525.949 28.8631 526.076 27.9318 526.076 26.9473H524.076ZM523.77 29.1586C523.572 29.8206 523.27 30.4109 522.863 30.9367L524.444 32.161C525.006 31.4355 525.42 30.6231 525.686 29.731L523.77 29.1586ZM522.863 30.9367C522.462 31.4541 521.95 31.9018 521.314 32.2766L522.329 33.9998C523.166 33.5067 523.876 32.8949 524.444 32.161L522.863 30.9367ZM521.306 32.2817C520.677 32.6605 519.903 32.9639 518.966 33.1773L519.41 35.1274C520.511 34.8766 521.493 34.5039 522.338 33.9946L521.306 32.2817ZM518.955 33.18C518.038 33.3999 516.964 33.5156 515.722 33.5156V35.5156C517.083 35.5156 518.319 35.3892 519.421 35.1247L518.955 33.18ZM511.211 30.793H516.342V28.793H511.211V30.793ZM516.342 30.793C517.136 30.793 517.848 30.7456 518.472 30.6436L518.149 28.6699C517.662 28.7496 517.062 28.793 516.342 28.793V30.793ZM518.451 30.6467C519.072 30.558 519.637 30.42 520.128 30.2186L519.368 28.3683C519.072 28.4898 518.678 28.594 518.169 28.6668L518.451 30.6467ZM520.107 30.2268C520.594 30.0396 521.034 29.7845 521.394 29.4402L520.01 27.9963C519.885 28.1162 519.689 28.2446 519.389 28.3601L520.107 30.2268ZM521.394 29.4402C521.741 29.1071 522.005 28.7119 522.17 28.2603L520.293 27.5718C520.236 27.7256 520.146 27.8652 520.01 27.9963L521.394 29.4402ZM522.155 28.2984C522.332 27.8713 522.413 27.4165 522.413 26.9473H520.413C520.413 27.1844 520.373 27.3755 520.307 27.5337L522.155 28.2984ZM522.413 26.9473C522.413 26.3632 522.293 25.8048 522.03 25.2941L520.251 26.2088C520.352 26.4045 520.413 26.6433 520.413 26.9473H522.413ZM522.03 25.2941C521.752 24.7537 521.325 24.3287 520.802 24.0067L519.754 25.7101C520.018 25.8725 520.166 26.0429 520.251 26.2088L522.03 25.2941ZM520.812 24.0129C520.288 23.6822 519.639 23.4626 518.915 23.3178L518.523 25.2789C519.11 25.3965 519.501 25.5502 519.744 25.7039L520.812 24.0129ZM518.903 23.3155C518.177 23.1793 517.319 23.1167 516.342 23.1167V25.1167C517.243 25.1167 517.969 25.1752 518.534 25.2812L518.903 23.3155ZM516.342 23.1167H511.211V25.1167H516.342V23.1167ZM511.211 23.1167C510.421 23.1167 509.711 23.1587 509.087 23.2478L509.369 25.2277C509.875 25.1555 510.487 25.1167 511.211 25.1167V23.1167ZM509.069 23.2505C508.459 23.3486 507.906 23.4839 507.424 23.6647L508.126 25.5374C508.451 25.4156 508.867 25.3086 509.387 25.2251L509.069 23.2505ZM507.395 23.6759C506.918 23.8719 506.487 24.1265 506.129 24.4555L507.483 25.9273C507.63 25.7921 507.845 25.6532 508.154 25.5262L507.395 23.6759ZM506.114 24.4694C505.767 24.8026 505.503 25.1978 505.337 25.6494L507.215 26.3379C507.272 26.1841 507.361 26.0444 507.498 25.9134L506.114 24.4694ZM505.337 25.6494C505.182 26.0724 505.11 26.5181 505.11 26.9775H507.11C507.11 26.7306 507.148 26.5203 507.215 26.3379L505.337 25.6494ZM505.11 26.9775C505.11 27.5523 505.222 28.1031 505.473 28.6054L507.262 27.711C507.17 27.5271 507.11 27.2908 507.11 26.9775H505.11ZM505.483 28.6261C505.763 29.1546 506.189 29.57 506.706 29.8878L507.754 28.1845C507.483 28.0179 507.334 27.848 507.251 27.6903L505.483 28.6261ZM506.7 29.8841C507.244 30.224 507.904 30.4441 508.638 30.5796L509.001 28.6128C508.423 28.5061 508.023 28.3528 507.76 28.1881L506.7 29.8841ZM508.623 30.5768C509.364 30.7249 510.231 30.793 511.211 30.793V28.793C510.314 28.793 509.587 28.7299 509.015 28.6156L508.623 30.5768ZM506.413 52.5737V53.5737H507.413V52.5737H506.413ZM502.734 52.5737H501.734V53.5737H502.734V52.5737ZM502.734 37.3462V36.3462H501.734V37.3462H502.734ZM505.853 37.3462L506.539 36.6189L506.25 36.3462H505.853V37.3462ZM513.391 44.4604L512.704 45.1877L512.719 45.2019L512.735 45.2155L513.391 44.4604ZM515.419 46.0498L515.987 45.2265L515.977 45.22L515.419 46.0498ZM517.008 46.9277L516.651 47.8616L516.657 47.8641L517.008 46.9277ZM520.005 46.8823L519.599 45.9685L519.591 45.9722L519.582 45.9761L520.005 46.8823ZM519.642 41.9932L519.25 42.9132L519.256 42.9157L519.642 41.9932ZM517.78 41.645H516.78V42.645H517.78V41.645ZM517.78 36.8921V35.8921H516.78V36.8921H517.78ZM521.443 37.8608L520.937 38.7232L520.94 38.7252L521.443 37.8608ZM524.092 40.5703L523.222 41.0624L523.225 41.0681L524.092 40.5703ZM522.17 51.1055L521.661 50.2447L522.17 51.1055ZM516.615 51.5747L516.943 50.6301L516.931 50.626L516.615 51.5747ZM512.437 48.9561L511.774 49.7047L511.779 49.7093L512.437 48.9561ZM510.197 46.8369L510.904 46.1298L510.881 46.1073L510.857 46.0862L510.197 46.8369ZM506.413 43.5068L507.073 42.7561L505.413 41.2948V43.5068H506.413ZM506.413 51.5737H502.734V53.5737H506.413V51.5737ZM503.734 52.5737V37.3462H501.734V52.5737H503.734ZM502.734 38.3462H505.853V36.3462H502.734V38.3462ZM505.166 38.0734L512.704 45.1877L514.077 43.7332L506.539 36.6189L505.166 38.0734ZM512.735 45.2155C513.521 45.8978 514.23 46.4556 514.861 46.8796L515.977 45.22C515.437 44.8569 514.794 44.3551 514.046 43.7054L512.735 45.2155ZM514.851 46.873C515.478 47.3053 516.079 47.6428 516.651 47.8616L517.366 45.9939C516.989 45.8494 516.53 45.6016 515.987 45.2266L514.851 46.873ZM516.657 47.8641C517.224 48.0765 517.788 48.2002 518.34 48.2002V46.2002C518.085 46.2002 517.762 46.1422 517.359 45.9914L516.657 47.8641ZM518.34 48.2002C519.099 48.2002 519.807 48.0782 520.428 47.7885L519.582 45.9761C519.295 46.1103 518.893 46.2002 518.34 46.2002V48.2002ZM520.412 47.7961C521.035 47.5188 521.545 47.0919 521.901 46.5134L520.198 45.4652C520.07 45.6737 519.884 45.8422 519.599 45.9685L520.412 47.7961ZM521.901 46.5134C522.26 45.9304 522.413 45.2602 522.413 44.5513H520.413C520.413 44.9726 520.324 45.261 520.198 45.4652L521.901 46.5134ZM522.413 44.5513C522.413 43.7647 522.206 43.0336 521.755 42.4074L520.133 43.577C520.307 43.8186 520.413 44.1269 520.413 44.5513H522.413ZM521.755 42.4074C521.321 41.8057 520.731 41.3648 520.028 41.0706L519.256 42.9157C519.663 43.0858 519.941 43.3108 520.133 43.577L521.755 42.4074ZM520.034 41.0731C519.345 40.7798 518.588 40.645 517.78 40.645V42.645C518.365 42.645 518.849 42.7423 519.25 42.9132L520.034 41.0731ZM518.78 41.645V36.8921H516.78V41.645H518.78ZM517.78 37.8921C518.954 37.8921 519.999 38.1723 520.937 38.7232L521.95 36.9985C520.688 36.2578 519.291 35.8921 517.78 35.8921V37.8921ZM520.94 38.7252C521.891 39.2783 522.65 40.0503 523.222 41.0624L524.963 40.0783C524.223 38.7694 523.216 37.7351 521.946 36.9965L520.94 38.7252ZM523.225 41.0681C523.791 42.0541 524.091 43.2342 524.091 44.6421H526.091C526.091 42.9419 525.726 41.4075 524.96 40.0726L523.225 41.0681ZM524.091 44.6421C524.091 46.1372 523.854 47.3196 523.429 48.23L525.24 49.0767C525.824 47.8276 526.091 46.3358 526.091 44.6421H524.091ZM523.429 48.23C523.001 49.1451 522.41 49.8018 521.661 50.2447L522.679 51.9662C523.807 51.2991 524.659 50.3211 525.24 49.0767L523.429 48.23ZM521.661 50.2447C520.906 50.691 519.96 50.938 518.779 50.938V52.938C520.242 52.938 521.557 52.63 522.679 51.9662L521.661 50.2447ZM518.779 50.938C518.143 50.938 517.533 50.8352 516.943 50.6302L516.286 52.5192C517.09 52.7986 517.922 52.938 518.779 52.938V50.938ZM516.931 50.626C516.323 50.4234 515.708 50.1243 515.084 49.721L513.998 51.4001C514.747 51.8848 515.514 52.2618 516.299 52.5234L516.931 50.626ZM515.084 49.721C514.444 49.3068 513.781 48.802 513.095 48.2028L511.779 49.7093C512.526 50.3615 513.266 50.9263 513.998 51.4001L515.084 49.721ZM513.1 48.2075C512.411 47.5973 511.679 46.9051 510.904 46.1298L509.49 47.544C510.289 48.3429 511.05 49.0635 511.774 49.7046L513.1 48.2075ZM510.857 46.0862L507.073 42.7561L505.752 44.2575L509.536 47.5876L510.857 46.0862ZM505.413 43.5068V52.5737H507.413V43.5068H505.413ZM515.767 59.7939H516.767V58.7939H515.767V59.7939ZM516.13 63.896L517.013 63.4254L517.008 63.4171L516.13 63.896ZM517.16 64.895L517.607 64.0006L517.599 63.9965L517.59 63.9925L517.16 64.895ZM521.05 64.002L520.192 63.4875L520.185 63.5L520.178 63.5127L521.05 64.002ZM521.125 61.0957L520.21 61.4977L520.214 61.5079L521.125 61.0957ZM520.323 60.0815L519.716 60.876L519.727 60.8843L520.323 60.0815ZM519.082 59.688H518.082V60.688H519.082V59.688ZM519.082 54.9502V53.9502H518.082V54.9502H519.082ZM522.276 55.9492L522.877 55.1503L522.872 55.146L522.276 55.9492ZM524.35 58.6284L523.433 59.0284L523.435 59.0323L524.35 58.6284ZM524.365 66.3027L523.443 65.9147L523.439 65.9244L524.365 66.3027ZM522.246 68.9971L521.685 68.1691L521.675 68.1762L522.246 68.9971ZM516.721 69.4512L517.179 68.5622L517.173 68.5595L516.721 69.4512ZM514.965 68.0132L514.191 68.6471L514.193 68.6485L514.965 68.0132ZM513.754 65.8032L512.809 66.1296L512.811 66.136L513.754 65.8032ZM513.315 59.7939V58.7939H512.315V59.7939H513.315ZM512.21 59.7939V58.7939H511.21V59.7939H512.21ZM514.617 59.7939H515.617V58.7939H514.617V59.7939ZM506.17 69.7236L506.618 68.8292L506.17 69.7236ZM504.127 68.0283L504.922 67.4213L504.127 68.0283ZM502.855 65.4702L501.895 65.7476L501.897 65.7567L502.855 65.4702ZM503.96 57.0845L503.146 56.5043L503.141 56.5118L503.96 57.0845ZM505.943 55.3135L505.461 54.4372L505.457 54.4398L505.943 55.3135ZM508.819 54.6475H509.819V53.6475H508.819V54.6475ZM508.819 59.3853V60.3853H509.819V59.3853H508.819ZM507.427 59.7788L506.891 58.9343L506.879 58.942L506.867 58.95L507.427 59.7788ZM506.458 60.8838L505.571 60.4212L505.565 60.4327L505.56 60.4442L506.458 60.8838ZM506.473 64.123L505.587 64.5856L505.59 64.5927L506.473 64.123ZM507.502 65.1978L508.005 64.3332L507.997 64.3288L507.99 64.3246L507.502 65.1978ZM510.848 65.1675L510.364 64.2924L510.352 64.2986L510.341 64.3051L510.848 65.1675ZM511.877 64.0171L510.962 63.6144L510.958 63.6221L510.955 63.6299L511.877 64.0171ZM514.767 59.7939V62.2007H516.767V59.7939H514.767ZM514.767 62.2007C514.767 62.9971 514.907 63.7409 515.252 64.3748L517.008 63.4171C516.87 63.1631 516.767 62.7767 516.767 62.2007H514.767ZM515.248 64.3666C515.586 64.9999 516.083 65.4891 516.729 65.7975L517.59 63.9925C517.348 63.8771 517.159 63.7003 517.013 63.4254L515.248 64.3666ZM516.712 65.7894C517.32 66.0934 517.999 66.228 518.719 66.228V64.228C518.248 64.228 517.887 64.1407 517.607 64.0006L516.712 65.7894ZM518.719 66.228C519.367 66.228 519.983 66.1001 520.543 65.8197L519.649 64.0309C519.403 64.1541 519.1 64.228 518.719 64.228V66.228ZM520.543 65.8197C521.135 65.5237 521.597 65.07 521.922 64.4912L520.178 63.5127C520.038 63.7613 519.864 63.9233 519.649 64.0309L520.543 65.8197ZM521.907 64.5164C522.271 63.9099 522.413 63.1901 522.413 62.4277H520.413C520.413 62.9571 520.313 63.2867 520.192 63.4875L521.907 64.5164ZM522.413 62.4277C522.413 61.8211 522.287 61.2366 522.037 60.6835L520.214 61.5079C520.348 61.8025 520.413 62.106 520.413 62.4277H522.413ZM522.041 60.6937C521.792 60.1254 521.416 59.6476 520.92 59.2788L519.727 60.8843C519.937 61.0402 520.096 61.2385 520.21 61.4977L522.041 60.6937ZM520.931 59.2872C520.392 58.8753 519.758 58.688 519.082 58.688V60.688C519.375 60.688 519.568 60.763 519.716 60.8759L520.931 59.2872ZM520.082 59.688V54.9502H518.082V59.688H520.082ZM519.082 55.9502C520.121 55.9502 520.972 56.2272 521.68 56.7525L522.872 55.146C521.784 54.3392 520.505 53.9502 519.082 53.9502V55.9502ZM521.674 56.7481C522.424 57.3127 523.012 58.0637 523.433 59.0284L525.266 58.2285C524.718 56.9731 523.924 55.938 522.877 55.1503L521.674 56.7481ZM523.435 59.0323C523.869 60.0153 524.091 61.0974 524.091 62.2915H526.091C526.091 60.8417 525.819 59.4818 525.264 58.2246L523.435 59.0323ZM524.091 62.2915C524.091 63.7106 523.866 64.911 523.443 65.9147L525.286 66.6908C525.833 65.3937 526.091 63.9199 526.091 62.2915H524.091ZM523.439 65.9244C523.031 66.9224 522.443 67.6556 521.685 68.1692L522.806 69.825C523.925 69.067 524.75 68.004 525.29 66.6811L523.439 65.9244ZM521.675 68.1762C520.947 68.6824 520.007 68.9658 518.794 68.9658V70.9658C520.327 70.9658 521.688 70.6034 522.817 69.818L521.675 68.1762ZM518.794 68.9658C518.245 68.9658 517.71 68.8358 517.179 68.5622L516.263 70.3401C517.064 70.7528 517.911 70.9658 518.794 70.9658V68.9658ZM517.173 68.5595C516.653 68.2951 516.173 67.9078 515.737 67.3779L514.193 68.6485C514.786 69.3698 515.477 69.9413 516.268 70.3428L517.173 68.5595ZM515.738 67.3793C515.317 66.8653 514.966 66.2341 514.697 65.4704L512.811 66.136C513.147 67.0878 513.604 67.93 514.191 68.6471L515.738 67.3793ZM514.699 65.4769C514.448 64.7494 514.315 63.9183 514.315 62.9727H512.315C512.315 64.1058 512.475 65.1617 512.809 66.1296L514.699 65.4769ZM514.315 62.9727V59.7939H512.315V62.9727H514.315ZM513.315 60.7939H515.767V58.7939H513.315V60.7939ZM512.21 60.7939H514.617V58.7939H512.21V60.7939ZM513.617 59.7939V62.9727H515.617V59.7939H513.617ZM513.617 62.9727C513.617 64.0487 513.494 64.9821 513.262 65.783L515.184 66.3381C515.477 65.3226 515.617 64.1974 515.617 62.9727H513.617ZM513.262 65.783C513.029 66.5901 512.703 67.2428 512.299 67.7625L513.877 68.9904C514.462 68.2386 514.892 67.3474 515.184 66.3381L513.262 65.783ZM512.299 67.7625C511.897 68.2783 511.42 68.6612 510.86 68.9251L511.713 70.7341C512.566 70.332 513.289 69.7462 513.877 68.9904L512.299 67.7625ZM510.86 68.9251C510.301 69.1885 509.662 69.3291 508.925 69.3291V71.3291C509.924 71.3291 510.859 71.1367 511.713 70.7341L510.86 68.9251ZM508.925 69.3291C508.029 69.3291 507.268 69.1542 506.618 68.8292L505.723 70.6181C506.688 71.1003 507.763 71.3291 508.925 71.3291V69.3291ZM506.618 68.8292C505.948 68.4946 505.385 68.0285 504.922 67.4213L503.332 68.6354C503.978 69.4813 504.778 70.1454 505.723 70.6181L506.618 68.8292ZM504.922 67.4213C504.448 66.8014 504.076 66.0603 503.814 65.1838L501.897 65.7567C502.221 66.8378 502.696 67.8021 503.332 68.6354L504.922 67.4213ZM503.816 65.1929C503.563 64.3142 503.432 63.349 503.432 62.2915H501.432C501.432 63.5146 501.583 64.6686 501.895 65.7476L503.816 65.1929ZM503.432 62.2915C503.432 61.466 503.545 60.6428 503.774 59.8194L501.847 59.2841C501.571 60.2771 501.432 61.2804 501.432 62.2915H503.432ZM503.774 59.8194C503.997 59.0149 504.334 58.2965 504.78 57.6572L503.141 56.5118C502.558 57.3457 502.128 58.2722 501.847 59.2841L503.774 59.8194ZM504.775 57.6647C505.213 57.0501 505.761 56.5595 506.43 56.1871L505.457 54.4398C504.531 54.9554 503.758 55.6456 503.146 56.5043L504.775 57.6647ZM506.425 56.1897C507.057 55.842 507.843 55.6475 508.819 55.6475V53.6475C507.575 53.6475 506.444 53.897 505.461 54.4373L506.425 56.1897ZM507.819 54.6475V59.3853H509.819V54.6475H507.819ZM508.819 58.3853C508.125 58.3853 507.473 58.5651 506.891 58.9343L507.962 60.6233C508.208 60.4678 508.484 60.3853 508.819 60.3853V58.3853ZM506.867 58.95C506.316 59.3224 505.885 59.821 505.571 60.4212L507.345 61.3464C507.516 61.0182 507.731 60.7802 507.986 60.6077L506.867 58.95ZM505.56 60.4442C505.257 61.0624 505.11 61.7284 505.11 62.4277H507.11C507.11 62.0171 507.195 61.6538 507.356 61.3233L505.56 60.4442ZM505.11 62.4277C505.11 63.2121 505.252 63.945 505.587 64.5856L507.36 63.6605C507.21 63.3727 507.11 62.9754 507.11 62.4277H505.11ZM505.59 64.5927C505.925 65.2223 506.4 65.7274 507.015 66.071L507.99 64.3246C507.737 64.1837 507.526 63.9723 507.356 63.6534L505.59 64.5927ZM507 66.0623C507.605 66.414 508.282 66.5762 509.001 66.5762V64.5762C508.59 64.5762 508.268 64.486 508.005 64.3332L507 66.0623ZM509.001 66.5762C509.874 66.5762 510.684 66.4228 511.354 66.0299L510.341 64.3051C510.082 64.4571 509.661 64.5762 509.001 64.5762V66.5762ZM511.332 66.0425C512.005 65.6702 512.501 65.1139 512.799 64.4043L510.955 63.6299C510.829 63.9294 510.639 64.14 510.364 64.2924L511.332 66.0425ZM512.792 64.4198C513.083 63.758 513.21 63.0082 513.21 62.2007H511.21C511.21 62.8059 511.114 63.2671 510.962 63.6144L512.792 64.4198ZM513.21 62.2007V59.7939H511.21V62.2007H513.21Z" fill="white"/>
</g>
<defs>
<filter id="filter0_d_20_10" x="0" y="0" width="529.091" height="79.0625" filterUnits="userSpaceOnUse" color-interpolation-filters="sRGB">
<feFlood flood-opacity="0" result="BackgroundImageFix"/>
<feColorMatrix in="SourceAlpha" type="matrix" values="0 0 0 0 0 0 0 0 0 0 0 0 0 0 0 0 0 0 127 0" result="hardAlpha"/>
<feOffset dy="4"/>
<feGaussianBlur stdDeviation="2"/>
<feComposite in2="hardAlpha" operator="out"/>
<feColorMatrix type="matrix" values="0 0 0 0 0 0 0 0 0 0 0 0 0 0 0 0 0 0 0.25 0"/>
<feBlend mode="normal" in2="BackgroundImageFix" result="effect1_dropShadow_20_10"/>
<feBlend mode="normal" in="SourceGraphic" in2="effect1_dropShadow_20_10" result="shape"/>
</filter>
</defs>
</svg>
