<svg width="533" height="128" viewBox="0 0 533 128" fill="none" xmlns="http://www.w3.org/2000/svg">
<path d="M38.875 60.3125V72.125H15.0781V60.3125H38.875ZM20.2812 3.875V72.125H5V3.875H20.2812ZM46.7188 31.3438V42.7812H15.0781V31.3438H46.7188ZM38.875 3.875V15.7344H15.0781V3.875H38.875Z" fill="white"/>
<path d="M92.625 3.875H107.906V48.6875C107.906 54 106.781 58.4688 104.531 62.0938C102.312 65.7188 99.2188 68.4531 95.25 70.2969C91.2812 72.1406 86.6875 73.0625 81.4688 73.0625C76.2188 73.0625 71.5938 72.1406 67.5938 70.2969C63.625 68.4531 60.5 65.7188 58.2188 62.0938C55.9688 58.4688 54.8438 54 54.8438 48.6875V15.7344H70.1719V48.6875C70.1719 51.625 70.6094 54.0312 71.4844 55.9062C72.3906 57.75 73.6875 59.1094 75.375 59.9844C77.0625 60.8281 79.0938 61.25 81.4688 61.25C83.8438 61.25 85.8594 60.8281 87.5156 59.9844C89.2031 59.1094 90.4688 57.75 91.3125 55.9062C92.1875 54.0312 92.625 51.625 92.625 48.6875V3.875Z" fill="white"/>
<path d="M116.734 3.875H142.938C148.156 3.875 152.672 4.65625 156.484 6.21875C160.328 7.78125 163.281 10.0938 165.344 13.1562C167.406 16.2188 168.438 20 168.438 24.5C168.438 28.25 167.828 31.4375 166.609 34.0625C165.391 36.6875 163.672 38.8594 161.453 40.5781C159.266 42.2969 156.703 43.6875 153.766 44.75L148.797 47.4688H132.016V35.7969L142.984 35.6094C145.266 35.6094 147.156 35.2031 148.656 34.3906C150.156 33.5781 151.281 32.4375 152.031 30.9688C152.812 29.4688 153.203 27.7188 153.203 25.7188C153.203 23.6562 152.812 21.875 152.031 20.375C151.25 18.875 150.094 17.7344 148.562 16.9531C147.062 16.1406 145.188 15.7344 142.938 15.7344H132.016V72.125H116.734V38V35.7969H132.016V15.7344H116.734V3.875ZM154.516 72.125L139.188 41.7969L155.312 41.75L170.875 71.4219V72.125H154.516Z" fill="white"/>
<path d="M201.156 3.875V72.125H185.922V3.875H201.156Z" fill="white"/>
<path d="M247.547 53.1875C247.547 52.0312 247.375 51 247.031 50.0938C246.688 49.1562 246.062 48.2969 245.156 47.5156C244.25 46.7344 242.969 45.9531 241.312 45.1719C239.656 44.3594 237.484 43.5312 234.797 42.6875C231.734 41.6875 228.812 40.5625 226.031 39.3125C223.281 38.0312 220.828 36.5469 218.672 34.8594C216.516 33.1719 214.812 31.2031 213.562 28.9531C212.344 26.7031 211.734 24.0781 211.734 21.0781C211.734 18.1719 212.375 15.5469 213.656 13.2031C214.938 10.8594 216.734 8.85938 219.047 7.20312C221.359 5.51562 224.078 4.23438 227.203 3.35938C230.328 2.45312 233.766 2 237.516 2C242.516 2 246.906 2.89062 250.688 4.67188C254.5 6.42188 257.469 8.89062 259.594 12.0781C261.719 15.2344 262.781 18.9062 262.781 23.0938H247.594C247.594 21.25 247.203 19.625 246.422 18.2188C245.672 16.7812 244.516 15.6562 242.953 14.8438C241.422 14.0312 239.5 13.625 237.188 13.625C234.938 13.625 233.047 13.9688 231.516 14.6562C230.016 15.3125 228.875 16.2188 228.094 17.375C227.344 18.5312 226.969 19.7969 226.969 21.1719C226.969 22.2656 227.25 23.2656 227.812 24.1719C228.406 25.0469 229.25 25.875 230.344 26.6562C231.469 27.4062 232.844 28.125 234.469 28.8125C236.094 29.5 237.953 30.1562 240.047 30.7812C243.703 31.9375 246.938 33.2188 249.75 34.625C252.594 36.0312 254.984 37.625 256.922 39.4062C258.859 41.1875 260.312 43.2031 261.281 45.4531C262.281 47.7031 262.781 50.25 262.781 53.0938C262.781 56.125 262.188 58.8125 261 61.1562C259.844 63.5 258.156 65.5 255.938 67.1562C253.75 68.7812 251.125 70.0156 248.062 70.8594C245 71.7031 241.578 72.125 237.797 72.125C234.359 72.125 231.203 71.5788 231.203 71.5788V59.8325C231.203 59.8325 235.828 60.5469 237.797 60.5469C240.078 60.5469 241.922 60.2344 243.328 59.6094C244.766 58.9531 245.828 58.0625 246.516 56.9375C247.203 55.8125 247.547 54.5625 247.547 53.1875Z" fill="white"/>
<path d="M303.234 23.8438V70.8594H288V23.8438H303.234ZM324 2.60938V14.4688H267.656V2.60938H324Z" fill="white"/>
<path d="M349.469 3.875V72.125H334.234V3.875H349.469Z" fill="white"/>
<path d="M418.234 61.0625V73.0625H413.734H405.234C405.234 73.0625 395.891 73.0625 390.297 73.0625C385.828 73.0625 381.828 72.2969 378.297 70.7656C374.766 69.2344 371.766 67.0469 369.297 64.2031C366.859 61.3281 364.984 57.875 363.672 53.8438C362.391 49.7812 361.75 45.2031 361.75 40.1094V35.9375C361.75 30.8438 362.422 26.2656 363.766 22.2031C365.109 18.1406 367.031 14.6719 369.531 11.7969C372.031 8.92188 375.031 6.71875 378.531 5.1875C382.031 3.65625 385.938 2.89062 390.25 2.89062C396.062 2.89062 405.234 2.89062 405.234 2.89062H418.141L418.234 27.1719H405.234C405.109 24.5156 405.234 19.9062 405.234 19.9062V15.125C405.234 15.125 393.234 14.8906 390.25 15.625C388.234 16.125 387.734 16.125 385.734 17.125C383.734 18.125 383.234 19.125 381.734 20.625C380.45 21.9091 378.547 23.8125 378.016 26.4688C377.484 29.0938 377.219 32.2188 377.219 35.8438V40.1094C377.219 43.7031 377.453 46.8125 377.922 49.4375C378.391 52.0625 380.066 53.9565 381.734 55.625C383.234 57.125 384.078 57.7812 385.734 58.625C387.391 59.4688 387.734 60.125 390.234 60.625C393.234 61.0625 397.234 61.0625 397.234 61.0625H405.234H418.234Z" fill="white"/>
<path d="M9.0092 102.477H2.1188V99.21H19.7606V102.477H12.8702V120H9.0092V102.477ZM31.3009 103.962C33.3007 103.962 34.9045 104.546 36.1123 105.714C37.3201 106.882 37.924 108.615 37.924 110.912V120H34.2115V111.387C34.2115 110.001 33.8848 108.961 33.2314 108.268C32.578 107.556 31.6474 107.199 30.4396 107.199C29.0734 107.199 27.9943 107.615 27.2023 108.447C26.4103 109.258 26.0143 110.437 26.0143 111.981V120H22.3018V97.9626H26.0143V105.982C26.6281 105.328 27.3805 104.833 28.2715 104.497C29.1823 104.14 30.1921 103.962 31.3009 103.962ZM57.688 112.159C57.688 112.417 57.6682 112.783 57.6286 113.258H45.1843C45.4021 114.426 45.9664 115.357 46.8772 116.05C47.8078 116.723 48.9562 117.06 50.3224 117.06C52.0648 117.06 53.5003 116.485 54.6289 115.337L56.6188 117.624C55.906 118.475 55.0051 119.119 53.9161 119.554C52.8271 119.99 51.5995 120.208 50.2333 120.208C48.4909 120.208 46.9564 119.861 45.6298 119.168C44.3032 118.475 43.2736 117.515 42.541 116.287C41.8282 115.04 41.4718 113.634 41.4718 112.07C41.4718 110.526 41.8183 109.14 42.5113 107.912C43.2241 106.665 44.2042 105.694 45.4516 105.001C46.699 104.308 48.1048 103.962 49.669 103.962C51.2134 103.962 52.5895 104.308 53.7973 105.001C55.0249 105.675 55.9753 106.635 56.6485 107.882C57.3415 109.11 57.688 110.536 57.688 112.159ZM49.669 106.932C48.481 106.932 47.4712 107.288 46.6396 108.001C45.8278 108.694 45.3328 109.625 45.1546 110.793H54.1537C53.9953 109.645 53.5102 108.714 52.6984 108.001C51.8866 107.288 50.8768 106.932 49.669 106.932ZM78.3722 99.21C80.174 99.21 81.7382 99.507 83.0648 100.101C84.4112 100.695 85.4408 101.546 86.1536 102.655C86.8664 103.764 87.2228 105.081 87.2228 106.605C87.2228 108.11 86.8664 109.427 86.1536 110.555C85.4408 111.664 84.4112 112.516 83.0648 113.11C81.7382 113.704 80.174 114.001 78.3722 114.001H73.6796V120H69.8186V99.21H78.3722ZM78.194 110.734C79.877 110.734 81.1541 110.377 82.0253 109.664C82.8965 108.952 83.3321 107.932 83.3321 106.605C83.3321 105.279 82.8965 104.259 82.0253 103.546C81.1541 102.833 79.877 102.477 78.194 102.477H73.6796V110.734H78.194ZM94.1113 106.457C95.1805 104.794 97.0615 103.962 99.7543 103.962V107.496C99.4375 107.437 99.1504 107.407 98.893 107.407C97.4476 107.407 96.319 107.833 95.5072 108.684C94.6954 109.516 94.2895 110.724 94.2895 112.308V120H90.577V104.14H94.1113V106.457ZM109.887 120.208C108.283 120.208 106.837 119.861 105.55 119.168C104.263 118.475 103.254 117.515 102.521 116.287C101.808 115.04 101.452 113.634 101.452 112.07C101.452 110.506 101.808 109.11 102.521 107.882C103.254 106.655 104.263 105.694 105.55 105.001C106.837 104.308 108.283 103.962 109.887 103.962C111.51 103.962 112.966 104.308 114.253 105.001C115.54 105.694 116.539 106.655 117.252 107.882C117.985 109.11 118.351 110.506 118.351 112.07C118.351 113.634 117.985 115.04 117.252 116.287C116.539 117.515 115.54 118.475 114.253 119.168C112.966 119.861 111.51 120.208 109.887 120.208ZM109.887 117.03C111.253 117.03 112.381 116.575 113.272 115.664C114.163 114.753 114.609 113.555 114.609 112.07C114.609 110.585 114.163 109.387 113.272 108.476C112.381 107.566 111.253 107.11 109.887 107.11C108.52 107.11 107.392 107.566 106.501 108.476C105.63 109.387 105.194 110.585 105.194 112.07C105.194 113.555 105.63 114.753 106.501 115.664C107.392 116.575 108.52 117.03 109.887 117.03ZM137.642 104.14V117.594C137.642 123.178 134.791 125.97 129.089 125.97C127.564 125.97 126.119 125.772 124.752 125.376C123.386 125 122.258 124.445 121.367 123.713L123.03 120.921C123.723 121.495 124.594 121.95 125.643 122.287C126.713 122.643 127.792 122.822 128.881 122.822C130.623 122.822 131.9 122.426 132.712 121.634C133.524 120.842 133.93 119.634 133.93 118.01V117.178C133.296 117.871 132.524 118.396 131.613 118.753C130.702 119.109 129.702 119.287 128.613 119.287C127.109 119.287 125.742 118.97 124.515 118.337C123.307 117.683 122.347 116.773 121.634 115.604C120.941 114.436 120.594 113.1 120.594 111.595C120.594 110.09 120.941 108.763 121.634 107.615C122.347 106.447 123.307 105.546 124.515 104.912C125.742 104.279 127.109 103.962 128.613 103.962C129.762 103.962 130.801 104.15 131.732 104.526C132.682 104.902 133.474 105.477 134.108 106.249V104.14H137.642ZM129.178 116.139C130.584 116.139 131.732 115.723 132.623 114.892C133.534 114.04 133.989 112.941 133.989 111.595C133.989 110.268 133.534 109.189 132.623 108.358C131.732 107.526 130.584 107.11 129.178 107.11C127.752 107.11 126.584 107.526 125.673 108.358C124.782 109.189 124.337 110.268 124.337 111.595C124.337 112.941 124.782 114.04 125.673 114.892C126.584 115.723 127.752 116.139 129.178 116.139ZM146.057 106.457C147.127 104.794 149.008 103.962 151.7 103.962V107.496C151.384 107.437 151.096 107.407 150.839 107.407C149.394 107.407 148.265 107.833 147.453 108.684C146.641 109.516 146.236 110.724 146.236 112.308V120H142.523V104.14H146.057V106.457ZM160.821 103.962C163.158 103.962 164.94 104.526 166.167 105.655C167.415 106.764 168.039 108.447 168.039 110.704V120H164.534V118.069C164.079 118.762 163.425 119.297 162.574 119.673C161.742 120.03 160.732 120.208 159.544 120.208C158.356 120.208 157.317 120.01 156.426 119.614C155.535 119.198 154.842 118.634 154.347 117.921C153.872 117.188 153.634 116.367 153.634 115.456C153.634 114.03 154.159 112.892 155.208 112.04C156.277 111.169 157.95 110.734 160.227 110.734H164.326V110.496C164.326 109.387 163.989 108.536 163.316 107.942C162.663 107.348 161.683 107.051 160.376 107.051C159.485 107.051 158.604 107.189 157.733 107.467C156.881 107.744 156.159 108.13 155.565 108.625L154.109 105.922C154.941 105.289 155.941 104.803 157.109 104.467C158.277 104.13 159.515 103.962 160.821 103.962ZM160.317 117.505C161.247 117.505 162.069 117.297 162.782 116.881C163.514 116.446 164.029 115.832 164.326 115.04V113.199H160.495C158.356 113.199 157.287 113.902 157.287 115.307C157.287 115.981 157.554 116.515 158.089 116.911C158.624 117.307 159.366 117.505 160.317 117.505ZM192.821 103.962C194.821 103.962 196.405 104.546 197.573 105.714C198.741 106.863 199.325 108.595 199.325 110.912V120H195.613V111.387C195.613 110.001 195.306 108.961 194.692 108.268C194.078 107.556 193.197 107.199 192.049 107.199C190.801 107.199 189.801 107.615 189.049 108.447C188.297 109.258 187.92 110.427 187.92 111.951V120H184.208V111.387C184.208 110.001 183.901 108.961 183.287 108.268C182.673 107.556 181.792 107.199 180.644 107.199C179.377 107.199 178.367 107.605 177.614 108.417C176.882 109.229 176.516 110.407 176.516 111.951V120H172.803V104.14H176.337V106.16C176.931 105.447 177.674 104.902 178.565 104.526C179.456 104.15 180.446 103.962 181.535 103.962C182.723 103.962 183.772 104.19 184.683 104.645C185.614 105.081 186.346 105.734 186.881 106.605C187.534 105.774 188.376 105.13 189.405 104.675C190.435 104.2 191.573 103.962 192.821 103.962ZM224.087 103.962C226.087 103.962 227.671 104.546 228.839 105.714C230.007 106.863 230.591 108.595 230.591 110.912V120H226.879V111.387C226.879 110.001 226.572 108.961 225.958 108.268C225.344 107.556 224.463 107.199 223.315 107.199C222.067 107.199 221.068 107.615 220.315 108.447C219.563 109.258 219.187 110.427 219.187 111.951V120H215.474V111.387C215.474 110.001 215.167 108.961 214.553 108.268C213.94 107.556 213.058 107.199 211.91 107.199C210.643 107.199 209.633 107.605 208.881 108.417C208.148 109.229 207.782 110.407 207.782 111.951V120H204.069V104.14H207.604V106.16C208.198 105.447 208.94 104.902 209.831 104.526C210.722 104.15 211.712 103.962 212.801 103.962C213.989 103.962 215.038 104.19 215.949 104.645C216.88 105.081 217.612 105.734 218.147 106.605C218.8 105.774 219.642 105.13 220.672 104.675C221.701 104.2 222.84 103.962 224.087 103.962ZM235.336 104.14H239.048V120H235.336V104.14ZM237.207 101.527C236.533 101.527 235.969 101.319 235.514 100.903C235.058 100.467 234.831 99.9327 234.831 99.2991C234.831 98.6655 235.058 98.1408 235.514 97.725C235.969 97.2894 236.533 97.0716 237.207 97.0716C237.88 97.0716 238.444 97.2795 238.9 97.6953C239.355 98.0913 239.583 98.5962 239.583 99.21C239.583 99.8634 239.355 100.418 238.9 100.873C238.464 101.309 237.9 101.527 237.207 101.527ZM252.92 103.962C254.92 103.962 256.523 104.546 257.731 105.714C258.939 106.882 259.543 108.615 259.543 110.912V120H255.83V111.387C255.83 110.001 255.504 108.961 254.85 108.268C254.197 107.556 253.266 107.199 252.058 107.199C250.692 107.199 249.613 107.615 248.821 108.447C248.029 109.258 247.633 110.437 247.633 111.981V120H243.921V104.14H247.455V106.189C248.069 105.457 248.841 104.902 249.772 104.526C250.702 104.15 251.752 103.962 252.92 103.962ZM280.138 104.14V117.594C280.138 123.178 277.287 125.97 271.585 125.97C270.06 125.97 268.615 125.772 267.249 125.376C265.882 125 264.754 124.445 263.863 123.713L265.526 120.921C266.219 121.495 267.09 121.95 268.14 122.287C269.209 122.643 270.288 122.822 271.377 122.822C273.119 122.822 274.396 122.426 275.208 121.634C276.02 120.842 276.426 119.634 276.426 118.01V117.178C275.792 117.871 275.02 118.396 274.109 118.753C273.199 119.109 272.199 119.287 271.11 119.287C269.605 119.287 268.239 118.97 267.011 118.337C265.803 117.683 264.843 116.773 264.13 115.604C263.437 114.436 263.091 113.1 263.091 111.595C263.091 110.09 263.437 108.763 264.13 107.615C264.843 106.447 265.803 105.546 267.011 104.912C268.239 104.279 269.605 103.962 271.11 103.962C272.258 103.962 273.298 104.15 274.228 104.526C275.179 104.902 275.971 105.477 276.604 106.249V104.14H280.138ZM271.674 116.139C273.08 116.139 274.228 115.723 275.119 114.892C276.03 114.04 276.485 112.941 276.485 111.595C276.485 110.268 276.03 109.189 275.119 108.358C274.228 107.526 273.08 107.11 271.674 107.11C270.248 107.11 269.08 107.526 268.169 108.358C267.278 109.189 266.833 110.268 266.833 111.595C266.833 112.941 267.278 114.04 268.169 114.892C269.08 115.723 270.248 116.139 271.674 116.139ZM303.207 120.297C301.108 120.297 299.207 119.842 297.504 118.931C295.821 118 294.495 116.723 293.524 115.099C292.574 113.476 292.099 111.644 292.099 109.605C292.099 107.566 292.584 105.734 293.554 104.11C294.524 102.487 295.851 101.22 297.534 100.309C299.237 99.3783 301.137 98.913 303.236 98.913C304.939 98.913 306.493 99.21 307.899 99.804C309.305 100.398 310.493 101.259 311.463 102.388L308.968 104.734C307.464 103.111 305.612 102.299 303.414 102.299C301.989 102.299 300.712 102.616 299.583 103.249C298.455 103.863 297.573 104.724 296.94 105.833C296.306 106.942 295.989 108.199 295.989 109.605C295.989 111.011 296.306 112.268 296.94 113.377C297.573 114.486 298.455 115.357 299.583 115.99C300.712 116.604 301.989 116.911 303.414 116.911C305.612 116.911 307.464 116.089 308.968 114.446L311.463 116.822C310.493 117.951 309.295 118.812 307.869 119.406C306.464 120 304.909 120.297 303.207 120.297ZM314.806 97.9626H318.519V120H314.806V97.9626ZM338.746 104.14V120H335.212V117.98C334.618 118.693 333.875 119.248 332.984 119.644C332.093 120.02 331.133 120.208 330.104 120.208C327.985 120.208 326.312 119.624 325.084 118.456C323.876 117.268 323.273 115.515 323.273 113.199V104.14H326.985V112.694C326.985 114.119 327.302 115.189 327.935 115.901C328.589 116.594 329.51 116.941 330.698 116.941C332.024 116.941 333.074 116.535 333.846 115.723C334.638 114.892 335.034 113.704 335.034 112.159V104.14H338.746ZM352.398 103.962C353.943 103.962 355.319 104.299 356.527 104.972C357.754 105.645 358.714 106.595 359.407 107.823C360.1 109.051 360.447 110.466 360.447 112.07C360.447 113.674 360.1 115.099 359.407 116.347C358.714 117.574 357.754 118.525 356.527 119.198C355.319 119.871 353.943 120.208 352.398 120.208C351.309 120.208 350.309 120.02 349.399 119.644C348.508 119.267 347.755 118.703 347.141 117.951V120H343.607V97.9626H347.32V106.071C347.953 105.378 348.696 104.853 349.547 104.497C350.418 104.14 351.369 103.962 352.398 103.962ZM351.982 117.03C353.349 117.03 354.467 116.575 355.339 115.664C356.23 114.753 356.675 113.555 356.675 112.07C356.675 110.585 356.23 109.387 355.339 108.476C354.467 107.566 353.349 107.11 351.982 107.11C351.091 107.11 350.29 107.318 349.577 107.734C348.864 108.13 348.3 108.704 347.884 109.456C347.468 110.209 347.26 111.08 347.26 112.07C347.26 113.06 347.468 113.931 347.884 114.684C348.3 115.436 348.864 116.02 349.577 116.436C350.29 116.832 351.091 117.03 351.982 117.03ZM364.896 115.278C365.589 115.278 366.163 115.505 366.618 115.961C367.074 116.416 367.301 117.01 367.301 117.743C367.301 118.06 367.252 118.396 367.153 118.753C367.074 119.089 366.895 119.604 366.618 120.297L365.103 124.485H362.698L363.886 119.941C363.45 119.762 363.104 119.485 362.846 119.109C362.609 118.713 362.49 118.258 362.49 117.743C362.49 117.01 362.718 116.416 363.173 115.961C363.628 115.505 364.203 115.278 364.896 115.278ZM379.493 99.21H383.354V120H379.493V99.21ZM388.978 99.21H392.839V120H388.978V99.21ZM402.679 102.477H395.789V99.21H413.431V102.477H406.54V120H402.679V102.477ZM424.536 99.21H428.397V120H424.536V99.21ZM442.663 103.962C444.663 103.962 446.267 104.546 447.475 105.714C448.683 106.882 449.286 108.615 449.286 110.912V120H445.574V111.387C445.574 110.001 445.247 108.961 444.594 108.268C443.94 107.556 443.01 107.199 441.802 107.199C440.436 107.199 439.357 107.615 438.565 108.447C437.773 109.258 437.377 110.437 437.377 111.981V120H433.664V104.14H437.199V106.189C437.812 105.457 438.585 104.902 439.515 104.526C440.446 104.15 441.495 103.962 442.663 103.962ZM469.674 97.9626V120H466.11V117.951C465.496 118.703 464.734 119.267 463.823 119.644C462.932 120.02 461.942 120.208 460.853 120.208C459.329 120.208 457.952 119.871 456.725 119.198C455.517 118.525 454.567 117.574 453.874 116.347C453.181 115.099 452.834 113.674 452.834 112.07C452.834 110.466 453.181 109.051 453.874 107.823C454.567 106.595 455.517 105.645 456.725 104.972C457.952 104.299 459.329 103.962 460.853 103.962C461.903 103.962 462.863 104.14 463.734 104.497C464.605 104.853 465.348 105.388 465.962 106.1V97.9626H469.674ZM461.299 117.03C462.19 117.03 462.992 116.832 463.704 116.436C464.417 116.02 464.981 115.436 465.397 114.684C465.813 113.931 466.021 113.06 466.021 112.07C466.021 111.08 465.813 110.209 465.397 109.456C464.981 108.704 464.417 108.13 463.704 107.734C462.992 107.318 462.19 107.11 461.299 107.11C460.408 107.11 459.606 107.318 458.893 107.734C458.18 108.13 457.616 108.704 457.2 109.456C456.784 110.209 456.576 111.08 456.576 112.07C456.576 113.06 456.784 113.931 457.2 114.684C457.616 115.436 458.18 116.02 458.893 116.436C459.606 116.832 460.408 117.03 461.299 117.03ZM481.659 120.208C480.055 120.208 478.61 119.861 477.323 119.168C476.036 118.475 475.026 117.515 474.293 116.287C473.58 115.04 473.224 113.634 473.224 112.07C473.224 110.506 473.58 109.11 474.293 107.882C475.026 106.655 476.036 105.694 477.323 105.001C478.61 104.308 480.055 103.962 481.659 103.962C483.282 103.962 484.738 104.308 486.025 105.001C487.312 105.694 488.312 106.655 489.024 107.882C489.757 109.11 490.123 110.506 490.123 112.07C490.123 113.634 489.757 115.04 489.024 116.287C488.312 117.515 487.312 118.475 486.025 119.168C484.738 119.861 483.282 120.208 481.659 120.208ZM481.659 117.03C483.025 117.03 484.154 116.575 485.045 115.664C485.936 114.753 486.381 113.555 486.381 112.07C486.381 110.585 485.936 109.387 485.045 108.476C484.154 107.566 483.025 107.11 481.659 107.11C480.293 107.11 479.164 107.566 478.273 108.476C477.402 109.387 476.966 110.585 476.966 112.07C476.966 113.555 477.402 114.753 478.273 115.664C479.164 116.575 480.293 117.03 481.659 117.03ZM497.208 106.457C498.277 104.794 500.158 103.962 502.851 103.962V107.496C502.534 107.437 502.247 107.407 501.989 107.407C500.544 107.407 499.415 107.833 498.604 108.684C497.792 109.516 497.386 110.724 497.386 112.308V120H493.673V104.14H497.208V106.457ZM520.764 112.159C520.764 112.417 520.745 112.783 520.705 113.258H508.261C508.478 114.426 509.043 115.357 509.954 116.05C510.884 116.723 512.033 117.06 513.399 117.06C515.141 117.06 516.577 116.485 517.705 115.337L519.695 117.624C518.982 118.475 518.081 119.119 516.992 119.554C515.903 119.99 514.676 120.208 513.31 120.208C511.567 120.208 510.033 119.861 508.706 119.168C507.38 118.475 506.35 117.515 505.617 116.287C504.905 115.04 504.548 113.634 504.548 112.07C504.548 110.526 504.895 109.14 505.588 107.912C506.3 106.665 507.281 105.694 508.528 105.001C509.775 104.308 511.181 103.962 512.745 103.962C514.29 103.962 515.666 104.308 516.874 105.001C518.101 105.675 519.052 106.635 519.725 107.882C520.418 109.11 520.764 110.536 520.764 112.159ZM512.745 106.932C511.557 106.932 510.548 107.288 509.716 108.001C508.904 108.694 508.409 109.625 508.231 110.793H517.23C517.072 109.645 516.587 108.714 515.775 108.001C514.963 107.288 513.953 106.932 512.745 106.932Z" fill="white"/>
<path d="M7.0092 103.477H0.1188V100.21H17.7606V103.477H10.8702V121H7.0092V103.477ZM29.3009 104.962C31.3007 104.962 32.9045 105.546 34.1123 106.714C35.3201 107.882 35.924 109.615 35.924 111.912V121H32.2115V112.387C32.2115 111.001 31.8848 109.961 31.2314 109.268C30.578 108.556 29.6474 108.199 28.4396 108.199C27.0734 108.199 25.9943 108.615 25.2023 109.447C24.4103 110.258 24.0143 111.437 24.0143 112.981V121H20.3018V98.9626H24.0143V106.982C24.6281 106.328 25.3805 105.833 26.2715 105.497C27.1823 105.14 28.1921 104.962 29.3009 104.962ZM55.688 113.159C55.688 113.417 55.6682 113.783 55.6286 114.258H43.1843C43.4021 115.426 43.9664 116.357 44.8772 117.05C45.8078 117.723 46.9562 118.06 48.3224 118.06C50.0648 118.06 51.5003 117.485 52.6289 116.337L54.6188 118.624C53.906 119.475 53.0051 120.119 51.9161 120.554C50.8271 120.99 49.5995 121.208 48.2333 121.208C46.4909 121.208 44.9564 120.861 43.6298 120.168C42.3032 119.475 41.2736 118.515 40.541 117.287C39.8282 116.04 39.4718 114.634 39.4718 113.07C39.4718 111.526 39.8183 110.14 40.5113 108.912C41.2241 107.665 42.2042 106.694 43.4516 106.001C44.699 105.308 46.1048 104.962 47.669 104.962C49.2134 104.962 50.5895 105.308 51.7973 106.001C53.0249 106.675 53.9753 107.635 54.6485 108.882C55.3415 110.11 55.688 111.536 55.688 113.159ZM47.669 107.932C46.481 107.932 45.4712 108.288 44.6396 109.001C43.8278 109.694 43.3328 110.625 43.1546 111.793H52.1537C51.9953 110.645 51.5102 109.714 50.6984 109.001C49.8866 108.288 48.8768 107.932 47.669 107.932ZM76.3722 100.21C78.174 100.21 79.7382 100.507 81.0648 101.101C82.4112 101.695 83.4408 102.546 84.1536 103.655C84.8664 104.764 85.2228 106.081 85.2228 107.605C85.2228 109.11 84.8664 110.427 84.1536 111.555C83.4408 112.664 82.4112 113.516 81.0648 114.11C79.7382 114.704 78.174 115.001 76.3722 115.001H71.6796V121H67.8186V100.21H76.3722ZM76.194 111.734C77.877 111.734 79.1541 111.377 80.0253 110.664C80.8965 109.952 81.3321 108.932 81.3321 107.605C81.3321 106.279 80.8965 105.259 80.0253 104.546C79.1541 103.833 77.877 103.477 76.194 103.477H71.6796V111.734H76.194ZM92.1113 107.457C93.1805 105.794 95.0615 104.962 97.7543 104.962V108.496C97.4375 108.437 97.1504 108.407 96.893 108.407C95.4476 108.407 94.319 108.833 93.5072 109.684C92.6954 110.516 92.2895 111.724 92.2895 113.308V121H88.577V105.14H92.1113V107.457ZM107.887 121.208C106.283 121.208 104.837 120.861 103.55 120.168C102.263 119.475 101.254 118.515 100.521 117.287C99.8082 116.04 99.4518 114.634 99.4518 113.07C99.4518 111.506 99.8082 110.11 100.521 108.882C101.254 107.655 102.263 106.694 103.55 106.001C104.837 105.308 106.283 104.962 107.887 104.962C109.51 104.962 110.966 105.308 112.253 106.001C113.54 106.694 114.539 107.655 115.252 108.882C115.985 110.11 116.351 111.506 116.351 113.07C116.351 114.634 115.985 116.04 115.252 117.287C114.539 118.515 113.54 119.475 112.253 120.168C110.966 120.861 109.51 121.208 107.887 121.208ZM107.887 118.03C109.253 118.03 110.381 117.575 111.272 116.664C112.163 115.753 112.609 114.555 112.609 113.07C112.609 111.585 112.163 110.387 111.272 109.476C110.381 108.566 109.253 108.11 107.887 108.11C106.52 108.11 105.392 108.566 104.501 109.476C103.63 110.387 103.194 111.585 103.194 113.07C103.194 114.555 103.63 115.753 104.501 116.664C105.392 117.575 106.52 118.03 107.887 118.03ZM135.642 105.14V118.594C135.642 124.178 132.791 126.97 127.089 126.97C125.564 126.97 124.119 126.772 122.752 126.376C121.386 126 120.258 125.445 119.367 124.713L121.03 121.921C121.723 122.495 122.594 122.95 123.643 123.287C124.713 123.643 125.792 123.822 126.881 123.822C128.623 123.822 129.9 123.426 130.712 122.634C131.524 121.842 131.93 120.634 131.93 119.01V118.178C131.296 118.871 130.524 119.396 129.613 119.753C128.702 120.109 127.702 120.287 126.613 120.287C125.109 120.287 123.742 119.97 122.515 119.337C121.307 118.683 120.347 117.773 119.634 116.604C118.941 115.436 118.594 114.1 118.594 112.595C118.594 111.09 118.941 109.763 119.634 108.615C120.347 107.447 121.307 106.546 122.515 105.912C123.742 105.279 125.109 104.962 126.613 104.962C127.762 104.962 128.801 105.15 129.732 105.526C130.682 105.902 131.474 106.477 132.108 107.249V105.14H135.642ZM127.178 117.139C128.584 117.139 129.732 116.723 130.623 115.892C131.534 115.04 131.989 113.941 131.989 112.595C131.989 111.268 131.534 110.189 130.623 109.358C129.732 108.526 128.584 108.11 127.178 108.11C125.752 108.11 124.584 108.526 123.673 109.358C122.782 110.189 122.337 111.268 122.337 112.595C122.337 113.941 122.782 115.04 123.673 115.892C124.584 116.723 125.752 117.139 127.178 117.139Z" fill="#FD2364"/>
<rect x="174.734" y="60.125" width="37" height="12" fill="white"/>
<rect x="323.734" y="60.125" width="37" height="12" fill="white"/>
<path fill-rule="evenodd" clip-rule="evenodd" d="M487.777 72.625L455.734 2.125L423.691 72.625H438.322L456.234 36.125L474.147 72.625H487.777Z" fill="white"/>
<path d="M507.413 18.7905H503.734V3.56299L506.853 3.56299L514.391 10.6772C515.158 11.3433 515.834 11.873 516.419 12.2666C517.004 12.6702 517.534 12.9629 518.008 13.1445C518.493 13.3262 518.937 13.417 519.34 13.417C519.996 13.417 520.551 13.311 521.005 13.0991C521.459 12.8973 521.808 12.5996 522.05 12.2061C522.292 11.8125 522.413 11.3332 522.413 10.7681C522.413 10.1626 522.257 9.6429 521.944 9.20898C521.631 8.77507 521.197 8.44206 520.642 8.20996C520.097 7.97786 519.477 7.86182 518.78 7.86182V3.10889C520.122 3.10889 521.343 3.4318 522.443 4.07764C523.553 4.72347 524.436 5.62663 525.092 6.78711C525.758 7.94759 526.091 9.30485 526.091 10.8589C526.091 12.4533 525.839 13.7904 525.334 14.8701C524.83 15.9499 524.108 16.7673 523.17 17.3223C522.231 17.8773 521.101 18.1548 519.779 18.1548C519.033 18.1548 518.311 18.0337 517.615 17.7915C516.918 17.5594 516.227 17.2214 515.541 16.7773C514.855 16.3333 514.153 15.7985 513.437 15.1729C512.731 14.5472 511.984 13.8408 511.197 13.0537L507.413 9.72363V18.7905ZM516.722 36.5156H512.801C511.187 36.5156 509.789 36.334 508.608 35.9707C507.428 35.6175 506.454 35.1029 505.687 34.4268C504.92 33.7607 504.35 32.9635 503.977 32.0352C503.613 31.1169 503.432 30.0977 503.432 28.9775C503.432 28.0794 503.548 27.2419 503.78 26.4648C504.012 25.6878 504.37 24.9865 504.854 24.3608C505.349 23.7453 505.965 23.2155 506.701 22.7715C507.438 22.3275 508.316 21.9844 509.335 21.7422C510.354 21.5101 511.51 21.394 512.801 21.394H516.722C518.356 21.394 519.759 21.5706 520.93 21.9238C522.1 22.2871 523.069 22.8068 523.836 23.4829C524.603 24.159 525.168 24.9562 525.531 25.8745C525.895 26.8029 526.076 27.8271 526.076 28.9473C526.076 29.8454 525.96 30.6779 525.728 31.4448C525.496 32.2218 525.138 32.9232 524.653 33.5488C524.169 34.1745 523.558 34.7043 522.822 35.1382C522.085 35.5822 521.207 35.9202 520.188 36.1523C519.179 36.3945 518.023 36.5156 516.722 36.5156ZM512.211 31.793H517.342C518.099 31.793 518.755 31.7476 519.31 31.6567C519.875 31.576 520.354 31.4549 520.748 31.2935C521.142 31.1421 521.459 30.9504 521.702 30.7183C521.944 30.4862 522.12 30.2188 522.231 29.916C522.353 29.6234 522.413 29.3005 522.413 28.9473C522.413 28.5033 522.322 28.1047 522.141 27.7515C521.959 27.3983 521.671 27.1006 521.278 26.8584C520.894 26.6162 520.375 26.4295 519.719 26.2983C519.073 26.1772 518.281 26.1167 517.342 26.1167H512.211C511.454 26.1167 510.793 26.1571 510.228 26.2378C509.663 26.3286 509.179 26.4497 508.775 26.6011C508.381 26.7625 508.058 26.9593 507.806 27.1914C507.564 27.4235 507.387 27.6909 507.276 27.9937C507.165 28.2964 507.11 28.6243 507.11 28.9775C507.11 29.4215 507.196 29.8151 507.367 30.1582C507.549 30.5013 507.836 30.7939 508.23 31.0361C508.634 31.2884 509.163 31.4751 509.819 31.5962C510.475 31.7274 511.272 31.793 512.211 31.793ZM507.413 54.5737H503.734V39.3462H506.853L514.391 46.4604C515.158 47.1265 515.834 47.6562 516.419 48.0498C517.004 48.4535 517.534 48.7461 518.008 48.9277C518.493 49.1094 518.937 49.2002 519.34 49.2002C519.996 49.2002 520.551 49.0942 521.005 48.8823C521.459 48.6805 521.808 48.3828 522.05 47.9893C522.292 47.5957 522.413 47.1164 522.413 46.5513C522.413 45.9458 522.257 45.4261 521.944 44.9922C521.631 44.5583 521.197 44.2253 520.642 43.9932C520.097 43.7611 519.477 43.645 518.78 43.645V38.8921C520.122 38.8921 521.343 39.215 522.443 39.8608C523.553 40.5067 524.436 41.4098 525.092 42.5703C525.758 43.7308 526.091 45.0881 526.091 46.6421C526.091 48.2365 525.839 49.5736 525.334 50.6533C524.83 51.7331 524.108 52.5505 523.17 53.1055C522.231 53.6605 521.101 53.938 519.779 53.938C519.033 53.938 518.311 53.8169 517.615 53.5747C516.918 53.3426 516.227 53.0046 515.541 52.5605C514.855 52.1165 514.153 51.5817 513.437 50.9561C512.731 50.3304 511.984 49.624 511.197 48.8369L507.413 45.5068V54.5737ZM507.413 72.4653H503.734V57.2378H506.853L514.391 64.3521C515.158 65.0181 515.834 65.5479 516.419 65.9414C517.004 66.3451 517.534 66.6377 518.008 66.8193C518.493 67.001 518.937 67.0918 519.34 67.0918C519.996 67.0918 520.551 66.9858 521.005 66.7739C521.459 66.5721 521.808 66.2744 522.05 65.8809C522.292 65.4873 522.413 65.008 522.413 64.4429C522.413 63.8374 522.257 63.3177 521.944 62.8838C521.631 62.4499 521.197 62.1169 520.642 61.8848C520.097 61.6527 519.477 61.5366 518.78 61.5366V56.7837C520.122 56.7837 521.343 57.1066 522.443 57.7524C523.553 58.3983 524.436 59.3014 525.092 60.4619C525.758 61.6224 526.091 62.9797 526.091 64.5337C526.091 66.1281 525.839 67.4652 525.334 68.5449C524.83 69.6247 524.108 70.4421 523.17 70.9971C522.231 71.5521 521.101 71.8296 519.779 71.8296C519.033 71.8296 518.311 71.7085 517.615 71.4663C516.918 71.2342 516.227 70.8962 515.541 70.4521C514.855 70.0081 514.153 69.4733 513.437 68.8477C512.731 68.222 511.984 67.5156 511.197 66.7285L507.413 63.3984V72.4653Z" fill="white"/>
<path d="M507.413 18.7905V19.7905H508.413V18.7905H507.413ZM503.734 18.7905H502.734V19.7905H503.734V18.7905ZM503.734 3.56299V2.56299H502.734V3.56299L503.734 3.56299ZM506.853 3.56299L507.539 2.83573L507.25 2.56299H506.853V3.56299ZM514.391 10.6772L513.704 11.4045L513.719 11.4187L513.735 11.4323L514.391 10.6772ZM516.419 12.2666L516.987 11.4433L516.977 11.4368L516.419 12.2666ZM518.008 13.1445L517.651 14.0784L517.657 14.0809L518.008 13.1445ZM521.005 13.0991L520.599 12.1853L520.591 12.189L520.582 12.1929L521.005 13.0991ZM520.642 8.20996L520.25 9.13L520.256 9.13254L520.642 8.20996ZM518.78 7.86182H517.78V8.86182H518.78V7.86182ZM518.78 3.10889V2.10889H517.78V3.10889L518.78 3.10889ZM522.443 4.07764L521.937 4.93998L521.94 4.94199L522.443 4.07764ZM525.092 6.78711L524.222 7.27918L524.225 7.28487L525.092 6.78711ZM523.17 17.3223L522.661 16.4615L523.17 17.3223ZM517.615 17.7915L517.943 16.8469L517.931 16.8428L517.615 17.7915ZM513.437 15.1729L512.774 15.9215L512.779 15.9261L513.437 15.1729ZM511.197 13.0537L511.904 12.3466L511.881 12.3241L511.857 12.303L511.197 13.0537ZM507.413 9.72363L508.073 8.97292L506.413 7.51157V9.72363H507.413ZM507.413 17.7905H503.734V19.7905H507.413V17.7905ZM504.734 18.7905V3.56299L502.734 3.56299V18.7905H504.734ZM503.734 4.56299H506.853V2.56299H503.734V4.56299ZM506.166 4.29024L513.704 11.4045L515.077 9.94999L507.539 2.83573L506.166 4.29024ZM513.735 11.4323C514.521 12.1146 515.23 12.6724 515.861 13.0964L516.977 11.4368C516.437 11.0737 515.794 10.5719 515.046 9.92221L513.735 11.4323ZM515.851 13.0898C516.478 13.5221 517.079 13.8596 517.651 14.0784L518.366 12.2107C517.989 12.0662 517.53 11.8184 516.987 11.4434L515.851 13.0898ZM517.657 14.0809C518.224 14.2933 518.788 14.417 519.34 14.417V12.417C519.085 12.417 518.762 12.359 518.359 12.2082L517.657 14.0809ZM519.34 14.417C520.099 14.417 520.807 14.295 521.428 14.0053L520.582 12.1929C520.295 12.3271 519.893 12.417 519.34 12.417V14.417ZM521.412 14.0129C522.035 13.7356 522.545 13.3087 522.901 12.7302L521.198 11.682C521.07 11.8905 520.884 12.059 520.599 12.1853L521.412 14.0129ZM522.901 12.7302C523.26 12.1472 523.413 11.4769 523.413 10.7681L521.413 10.7681C521.413 11.1894 521.324 11.4778 521.198 11.682L522.901 12.7302ZM523.413 10.7681C523.413 9.98152 523.206 9.25038 522.755 8.62418L521.133 9.79379C521.307 10.0354 521.413 10.3437 521.413 10.7681L523.413 10.7681ZM522.755 8.62418C522.321 8.02253 521.731 7.58156 521.028 7.28738L520.256 9.13254C520.663 9.30255 520.941 9.5276 521.133 9.79379L522.755 8.62418ZM521.034 7.28994C520.345 6.99664 519.588 6.86182 518.78 6.86182V8.86182C519.365 8.86182 519.849 8.95909 520.25 9.12998L521.034 7.28994ZM519.78 7.86182V3.10889L517.78 3.10889V7.86182H519.78ZM518.78 4.10889C519.954 4.10889 520.999 4.38906 521.937 4.93998L522.95 3.2153C521.688 2.47455 520.291 2.10889 518.78 2.10889V4.10889ZM521.94 4.94199C522.891 5.49507 523.65 6.26708 524.222 7.27917L525.963 6.29505C525.223 4.98617 524.216 3.95187 522.946 3.21329L521.94 4.94199ZM524.225 7.28487C524.791 8.27093 525.091 9.45102 525.091 10.8589H527.091C527.091 9.15868 526.726 7.62425 525.96 6.28935L524.225 7.28487ZM525.091 10.8589C525.091 12.354 524.854 13.5364 524.429 14.4468L526.24 15.2935C526.824 14.0443 527.091 12.5526 527.091 10.8589H525.091ZM524.429 14.4468C524.001 15.3619 523.41 16.0186 522.661 16.4615L523.679 18.183C524.807 17.5159 525.659 16.5379 526.24 15.2935L524.429 14.4468ZM522.661 16.4615C521.906 16.9078 520.96 17.1548 519.779 17.1548V19.1548C521.242 19.1548 522.557 18.8468 523.679 18.183L522.661 16.4615ZM519.779 17.1548C519.143 17.1548 518.533 17.052 517.943 16.847L517.286 18.736C518.09 19.0154 518.922 19.1548 519.779 19.1548V17.1548ZM517.931 16.8428C517.323 16.6402 516.708 16.3411 516.084 15.9378L514.998 17.6169C515.747 18.1016 516.514 18.4786 517.299 18.7402L517.931 16.8428ZM516.084 15.9378C515.444 15.5236 514.781 15.0188 514.095 14.4196L512.779 15.9261C513.526 16.5783 514.266 17.1431 514.998 17.6169L516.084 15.9378ZM514.1 14.4243C513.411 13.8141 512.679 13.1219 511.904 12.3466L510.49 13.7608C511.289 14.5597 512.05 15.2803 512.774 15.9214L514.1 14.4243ZM511.857 12.303L508.073 8.97292L506.752 10.4743L510.536 13.8044L511.857 12.303ZM506.413 9.72363V18.7905H508.413V9.72363H506.413ZM508.608 35.9707L508.902 35.0149L508.895 35.0127L508.608 35.9707ZM505.687 34.4268L506.348 33.6766L506.343 33.6717L505.687 34.4268ZM503.977 32.0352L503.047 32.403L503.049 32.4083L503.977 32.0352ZM504.854 24.3608L504.075 23.7346L504.069 23.7416L504.064 23.7487L504.854 24.3608ZM509.335 21.7422L509.113 20.7671L509.104 20.7693L509.335 21.7422ZM520.93 21.9238L521.226 20.9687L521.219 20.9665L520.93 21.9238ZM523.836 23.4829L524.497 22.7328L523.836 23.4829ZM525.531 25.8745L526.462 25.5101L526.461 25.5066L525.531 25.8745ZM525.728 31.4448L524.771 31.1552L524.77 31.1586L525.728 31.4448ZM522.822 35.1382L522.314 34.2765L522.306 34.2817L522.822 35.1382ZM520.188 36.1523L519.966 35.1772L519.955 35.18L520.188 36.1523ZM519.31 31.6567L519.169 30.6668L519.159 30.6682L519.149 30.6699L519.31 31.6567ZM520.748 31.2935L520.389 30.3601L520.379 30.3641L520.368 30.3683L520.748 31.2935ZM522.231 29.916L521.307 29.5337L521.3 29.5526L521.293 29.5718L522.231 29.916ZM522.141 27.7515L523.03 27.2941L522.141 27.7515ZM521.278 26.8584L520.744 27.7039L520.754 27.7101L521.278 26.8584ZM519.719 26.2983L519.915 25.3177L519.903 25.3155L519.719 26.2983ZM510.228 26.2378L510.087 25.2478L510.078 25.2491L510.069 25.2505L510.228 26.2378ZM508.775 26.6011L508.424 25.6647L508.409 25.6701L508.395 25.6759L508.775 26.6011ZM507.806 27.1914L507.129 26.4555L507.122 26.4624L507.114 26.4694L507.806 27.1914ZM507.367 30.1582L506.473 30.6054L506.478 30.6158L506.483 30.6261L507.367 30.1582ZM508.23 31.0361L508.76 30.1881L508.754 30.1845L508.23 31.0361ZM509.819 31.5962L510.015 30.6156L510.008 30.6142L510.001 30.6128L509.819 31.5962ZM516.722 35.5156H512.801V37.5156H516.722V35.5156ZM512.801 35.5156C511.258 35.5156 509.964 35.3415 508.902 35.0149L508.314 36.9265C509.614 37.3265 511.116 37.5156 512.801 37.5156V35.5156ZM508.895 35.0127C507.825 34.6925 506.987 34.2396 506.348 33.6766L505.026 35.1769C505.921 35.9661 507.031 36.5425 508.322 36.9288L508.895 35.0127ZM506.343 33.6717C505.694 33.108 505.218 32.4411 504.904 31.662L503.049 32.4083C503.482 33.486 504.147 34.4135 505.031 35.1818L506.343 33.6717ZM504.906 31.6673C504.595 30.8808 504.432 29.9885 504.432 28.9775H502.432C502.432 30.2068 502.631 31.353 503.047 32.403L504.906 31.6673ZM504.432 28.9775C504.432 28.1661 504.536 27.4258 504.738 26.751L502.822 26.1786C502.559 27.0579 502.432 27.9928 502.432 28.9775H504.432ZM504.738 26.751C504.936 26.0891 505.238 25.4988 505.645 24.973L504.064 23.7487C503.502 24.4742 503.088 25.2866 502.822 26.1786L504.738 26.751ZM505.634 24.9871C506.049 24.471 506.572 24.0167 507.217 23.6279L506.185 21.915C505.357 22.4143 504.649 23.0196 504.075 23.7346L505.634 24.9871ZM507.217 23.6279C507.849 23.2474 508.626 22.9384 509.566 22.7151L509.104 20.7693C508.005 21.0303 507.027 21.4076 506.185 21.915L507.217 23.6279ZM509.557 22.7172C510.489 22.5051 511.568 22.394 512.801 22.394V20.394C511.452 20.394 510.22 20.5151 509.113 20.7671L509.557 22.7172ZM512.801 22.394H516.722V20.394H512.801V22.394ZM516.722 22.394C518.289 22.394 519.589 22.564 520.641 22.8812L521.219 20.9665C519.929 20.5773 518.424 20.394 516.722 20.394V22.394ZM520.633 22.8789C521.695 23.2085 522.532 23.6669 523.175 24.233L524.497 22.7328C523.606 21.9467 522.505 21.3657 521.226 20.9688L520.633 22.8789ZM523.175 24.233C523.827 24.8085 524.298 25.4762 524.601 26.2424L526.461 25.5066C526.038 24.4362 525.378 23.5095 524.497 22.7328L523.175 24.233ZM524.6 26.2389C524.913 27.0377 525.076 27.9365 525.076 28.9473H527.076C527.076 27.7178 526.876 26.5681 526.462 25.5101L524.6 26.2389ZM525.076 28.9473C525.076 29.7589 524.971 30.4927 524.771 31.1552L526.685 31.7345C526.949 30.8631 527.076 29.9318 527.076 28.9473H525.076ZM524.77 31.1586C524.572 31.8206 524.27 32.4109 523.863 32.9367L525.444 34.161C526.006 33.4355 526.42 32.6231 526.686 31.731L524.77 31.1586ZM523.863 32.9367C523.462 33.4541 522.95 33.9018 522.314 34.2766L523.329 35.9998C524.166 35.5067 524.876 34.8949 525.444 34.161L523.863 32.9367ZM522.306 34.2817C521.677 34.6605 520.903 34.9639 519.966 35.1773L520.41 37.1274C521.511 36.8766 522.493 36.5039 523.338 35.9946L522.306 34.2817ZM519.955 35.18C519.038 35.3999 517.964 35.5156 516.722 35.5156V37.5156C518.083 37.5156 519.319 37.3892 520.421 37.1247L519.955 35.18ZM512.211 32.793H517.342V30.793H512.211V32.793ZM517.342 32.793C518.136 32.793 518.848 32.7456 519.472 32.6436L519.149 30.6699C518.662 30.7496 518.062 30.793 517.342 30.793V32.793ZM519.451 32.6467C520.072 32.558 520.637 32.42 521.128 32.2186L520.368 30.3683C520.072 30.4898 519.678 30.594 519.169 30.6668L519.451 32.6467ZM521.107 32.2268C521.594 32.0396 522.034 31.7845 522.394 31.4402L521.01 29.9963C520.885 30.1162 520.689 30.2446 520.389 30.3601L521.107 32.2268ZM522.394 31.4402C522.741 31.1071 523.005 30.7119 523.17 30.2603L521.293 29.5718C521.236 29.7256 521.146 29.8652 521.01 29.9963L522.394 31.4402ZM523.155 30.2984C523.332 29.8713 523.413 29.4165 523.413 28.9473H521.413C521.413 29.1844 521.373 29.3755 521.307 29.5337L523.155 30.2984ZM523.413 28.9473C523.413 28.3632 523.293 27.8048 523.03 27.2941L521.251 28.2088C521.352 28.4045 521.413 28.6433 521.413 28.9473H523.413ZM523.03 27.2941C522.752 26.7537 522.325 26.3287 521.802 26.0067L520.754 27.7101C521.018 27.8725 521.166 28.0429 521.251 28.2088L523.03 27.2941ZM521.812 26.0129C521.288 25.6822 520.639 25.4626 519.915 25.3178L519.523 27.2789C520.11 27.3965 520.501 27.5502 520.744 27.7039L521.812 26.0129ZM519.903 25.3155C519.177 25.1793 518.319 25.1167 517.342 25.1167V27.1167C518.243 27.1167 518.969 27.1752 519.534 27.2812L519.903 25.3155ZM517.342 25.1167H512.211V27.1167H517.342V25.1167ZM512.211 25.1167C511.421 25.1167 510.711 25.1587 510.087 25.2478L510.369 27.2277C510.875 27.1555 511.487 27.1167 512.211 27.1167V25.1167ZM510.069 25.2505C509.459 25.3486 508.906 25.4839 508.424 25.6647L509.126 27.5374C509.451 27.4156 509.867 27.3086 510.387 27.2251L510.069 25.2505ZM508.395 25.6759C507.918 25.8719 507.487 26.1265 507.129 26.4555L508.483 27.9273C508.63 27.7921 508.845 27.6532 509.154 27.5262L508.395 25.6759ZM507.114 26.4694C506.767 26.8026 506.503 27.1978 506.337 27.6494L508.215 28.3379C508.272 28.1841 508.361 28.0444 508.498 27.9134L507.114 26.4694ZM506.337 27.6494C506.182 28.0724 506.11 28.5181 506.11 28.9775H508.11C508.11 28.7306 508.148 28.5203 508.215 28.3379L506.337 27.6494ZM506.11 28.9775C506.11 29.5523 506.222 30.1031 506.473 30.6054L508.262 29.711C508.17 29.5271 508.11 29.2908 508.11 28.9775H506.11ZM506.483 30.6261C506.763 31.1546 507.189 31.57 507.706 31.8878L508.754 30.1845C508.483 30.0179 508.334 29.848 508.251 29.6903L506.483 30.6261ZM507.7 31.8841C508.244 32.224 508.904 32.4441 509.638 32.5796L510.001 30.6128C509.423 30.5061 509.023 30.3528 508.76 30.1881L507.7 31.8841ZM509.623 32.5768C510.364 32.7249 511.231 32.793 512.211 32.793V30.793C511.314 30.793 510.587 30.7299 510.015 30.6156L509.623 32.5768ZM507.413 54.5737V55.5737H508.413V54.5737H507.413ZM503.734 54.5737H502.734V55.5737H503.734V54.5737ZM503.734 39.3462V38.3462H502.734V39.3462H503.734ZM506.853 39.3462L507.539 38.6189L507.25 38.3462H506.853V39.3462ZM514.391 46.4604L513.704 47.1877L513.719 47.2019L513.735 47.2155L514.391 46.4604ZM516.419 48.0498L516.987 47.2265L516.977 47.22L516.419 48.0498ZM518.008 48.9277L517.651 49.8616L517.657 49.8641L518.008 48.9277ZM521.005 48.8823L520.599 47.9685L520.591 47.9722L520.582 47.9761L521.005 48.8823ZM520.642 43.9932L520.25 44.9132L520.256 44.9157L520.642 43.9932ZM518.78 43.645H517.78V44.645H518.78V43.645ZM518.78 38.8921V37.8921H517.78V38.8921H518.78ZM522.443 39.8608L521.937 40.7232L521.94 40.7252L522.443 39.8608ZM525.092 42.5703L524.222 43.0624L524.225 43.0681L525.092 42.5703ZM523.17 53.1055L522.661 52.2447L523.17 53.1055ZM517.615 53.5747L517.943 52.6301L517.931 52.626L517.615 53.5747ZM513.437 50.9561L512.774 51.7047L512.779 51.7093L513.437 50.9561ZM511.197 48.8369L511.904 48.1298L511.881 48.1073L511.857 48.0862L511.197 48.8369ZM507.413 45.5068L508.073 44.7561L506.413 43.2948V45.5068H507.413ZM507.413 53.5737H503.734V55.5737H507.413V53.5737ZM504.734 54.5737V39.3462H502.734V54.5737H504.734ZM503.734 40.3462H506.853V38.3462H503.734V40.3462ZM506.166 40.0734L513.704 47.1877L515.077 45.7332L507.539 38.6189L506.166 40.0734ZM513.735 47.2155C514.521 47.8978 515.23 48.4556 515.861 48.8796L516.977 47.22C516.437 46.8569 515.794 46.3551 515.046 45.7054L513.735 47.2155ZM515.851 48.873C516.478 49.3053 517.079 49.6428 517.651 49.8616L518.366 47.9939C517.989 47.8494 517.53 47.6016 516.987 47.2266L515.851 48.873ZM517.657 49.8641C518.224 50.0765 518.788 50.2002 519.34 50.2002V48.2002C519.085 48.2002 518.762 48.1422 518.359 47.9914L517.657 49.8641ZM519.34 50.2002C520.099 50.2002 520.807 50.0782 521.428 49.7885L520.582 47.9761C520.295 48.1103 519.893 48.2002 519.34 48.2002V50.2002ZM521.412 49.7961C522.035 49.5188 522.545 49.0919 522.901 48.5134L521.198 47.4652C521.07 47.6737 520.884 47.8422 520.599 47.9685L521.412 49.7961ZM522.901 48.5134C523.26 47.9304 523.413 47.2602 523.413 46.5513H521.413C521.413 46.9726 521.324 47.261 521.198 47.4652L522.901 48.5134ZM523.413 46.5513C523.413 45.7647 523.206 45.0336 522.755 44.4074L521.133 45.577C521.307 45.8186 521.413 46.1269 521.413 46.5513H523.413ZM522.755 44.4074C522.321 43.8057 521.731 43.3648 521.028 43.0706L520.256 44.9157C520.663 45.0858 520.941 45.3108 521.133 45.577L522.755 44.4074ZM521.034 43.0731C520.345 42.7798 519.588 42.645 518.78 42.645V44.645C519.365 44.645 519.849 44.7423 520.25 44.9132L521.034 43.0731ZM519.78 43.645V38.8921H517.78V43.645H519.78ZM518.78 39.8921C519.954 39.8921 520.999 40.1723 521.937 40.7232L522.95 38.9985C521.688 38.2578 520.291 37.8921 518.78 37.8921V39.8921ZM521.94 40.7252C522.891 41.2783 523.65 42.0503 524.222 43.0624L525.963 42.0783C525.223 40.7694 524.216 39.7351 522.946 38.9965L521.94 40.7252ZM524.225 43.0681C524.791 44.0541 525.091 45.2342 525.091 46.6421H527.091C527.091 44.9419 526.726 43.4075 525.96 42.0726L524.225 43.0681ZM525.091 46.6421C525.091 48.1372 524.854 49.3196 524.429 50.23L526.24 51.0767C526.824 49.8276 527.091 48.3358 527.091 46.6421H525.091ZM524.429 50.23C524.001 51.1451 523.41 51.8018 522.661 52.2447L523.679 53.9662C524.807 53.2991 525.659 52.3211 526.24 51.0767L524.429 50.23ZM522.661 52.2447C521.906 52.691 520.96 52.938 519.779 52.938V54.938C521.242 54.938 522.557 54.63 523.679 53.9662L522.661 52.2447ZM519.779 52.938C519.143 52.938 518.533 52.8352 517.943 52.6302L517.286 54.5192C518.09 54.7986 518.922 54.938 519.779 54.938V52.938ZM517.931 52.626C517.323 52.4234 516.708 52.1243 516.084 51.721L514.998 53.4001C515.747 53.8848 516.514 54.2618 517.299 54.5234L517.931 52.626ZM516.084 51.721C515.444 51.3068 514.781 50.802 514.095 50.2028L512.779 51.7093C513.526 52.3615 514.266 52.9263 514.998 53.4001L516.084 51.721ZM514.1 50.2075C513.411 49.5973 512.679 48.9051 511.904 48.1298L510.49 49.544C511.289 50.3429 512.05 51.0635 512.774 51.7046L514.1 50.2075ZM511.857 48.0862L508.073 44.7561L506.752 46.2575L510.536 49.5876L511.857 48.0862ZM506.413 45.5068V54.5737H508.413V45.5068H506.413ZM507.413 72.4653V73.4653H508.413V72.4653H507.413ZM503.734 72.4653H502.734V73.4653H503.734V72.4653ZM503.734 57.2378V56.2378H502.734V57.2378H503.734ZM506.853 57.2378L507.539 56.5105L507.25 56.2378H506.853V57.2378ZM514.391 64.3521L513.704 65.0793L513.719 65.0935L513.735 65.1071L514.391 64.3521ZM516.419 65.9414L516.987 65.1181L516.977 65.1116L516.419 65.9414ZM518.008 66.8193L517.651 67.7532L517.657 67.7557L518.008 66.8193ZM521.005 66.7739L520.599 65.8601L520.591 65.8639L520.582 65.8677L521.005 66.7739ZM520.642 61.8848L520.25 62.8048L520.256 62.8073L520.642 61.8848ZM518.78 61.5366H517.78V62.5366H518.78V61.5366ZM518.78 56.7837V55.7837H517.78V56.7837H518.78ZM522.443 57.7524L521.937 58.6148L521.94 58.6168L522.443 57.7524ZM525.092 60.4619L524.222 60.954L524.225 60.9597L525.092 60.4619ZM523.17 70.9971L522.661 70.1363L523.17 70.9971ZM517.615 71.4663L517.943 70.5217L517.931 70.5176L517.615 71.4663ZM513.437 68.8477L512.774 69.5963L512.779 69.6009L513.437 68.8477ZM511.197 66.7285L511.904 66.0214L511.881 65.9989L511.857 65.9778L511.197 66.7285ZM507.413 63.3984L508.073 62.6477L506.413 61.1864V63.3984H507.413ZM507.413 71.4653H503.734V73.4653H507.413V71.4653ZM504.734 72.4653V57.2378H502.734V72.4653H504.734ZM503.734 58.2378H506.853V56.2378H503.734V58.2378ZM506.166 57.965L513.704 65.0793L515.077 63.6248L507.539 56.5105L506.166 57.965ZM513.735 65.1071C514.521 65.7894 515.23 66.3472 515.861 66.7712L516.977 65.1116C516.437 64.7485 515.794 64.2467 515.046 63.597L513.735 65.1071ZM515.851 66.7646C516.478 67.1969 517.079 67.5344 517.651 67.7532L518.366 65.8855C517.989 65.741 517.53 65.4932 516.987 65.1182L515.851 66.7646ZM517.657 67.7557C518.224 67.9681 518.788 68.0918 519.34 68.0918V66.0918C519.085 66.0918 518.762 66.0338 518.359 65.883L517.657 67.7557ZM519.34 68.0918C520.099 68.0918 520.807 67.9698 521.428 67.6801L520.582 65.8677C520.295 66.0019 519.893 66.0918 519.34 66.0918V68.0918ZM521.412 67.6877C522.035 67.4104 522.545 66.9835 522.901 66.405L521.198 65.3568C521.07 65.5653 520.884 65.7338 520.599 65.8601L521.412 67.6877ZM522.901 66.405C523.26 65.822 523.413 65.1518 523.413 64.4429H521.413C521.413 64.8642 521.324 65.1526 521.198 65.3568L522.901 66.405ZM523.413 64.4429C523.413 63.6563 523.206 62.9252 522.755 62.299L521.133 63.4686C521.307 63.7102 521.413 64.0185 521.413 64.4429H523.413ZM522.755 62.299C522.321 61.6973 521.731 61.2564 521.028 60.9622L520.256 62.8073C520.663 62.9774 520.941 63.2024 521.133 63.4686L522.755 62.299ZM521.034 60.9647C520.345 60.6714 519.588 60.5366 518.78 60.5366V62.5366C519.365 62.5366 519.849 62.6339 520.25 62.8048L521.034 60.9647ZM519.78 61.5366V56.7837H517.78V61.5366H519.78ZM518.78 57.7837C519.954 57.7837 520.999 58.0639 521.937 58.6148L522.95 56.8901C521.688 56.1494 520.291 55.7837 518.78 55.7837V57.7837ZM521.94 58.6168C522.891 59.1699 523.65 59.9419 524.222 60.954L525.963 59.9699C525.223 58.661 524.216 57.6267 522.946 56.8881L521.94 58.6168ZM524.225 60.9597C524.791 61.9457 525.091 63.1258 525.091 64.5337H527.091C527.091 62.8335 526.726 61.2991 525.96 59.9642L524.225 60.9597ZM525.091 64.5337C525.091 66.0288 524.854 67.2112 524.429 68.1216L526.24 68.9683C526.824 67.7192 527.091 66.2274 527.091 64.5337H525.091ZM524.429 68.1216C524.001 69.0367 523.41 69.6934 522.661 70.1363L523.679 71.8578C524.807 71.1907 525.659 70.2127 526.24 68.9683L524.429 68.1216ZM522.661 70.1363C521.906 70.5826 520.96 70.8296 519.779 70.8296V72.8296C521.242 72.8296 522.557 72.5216 523.679 71.8578L522.661 70.1363ZM519.779 70.8296C519.143 70.8296 518.533 70.7268 517.943 70.5218L517.286 72.4108C518.09 72.6902 518.922 72.8296 519.779 72.8296V70.8296ZM517.931 70.5176C517.323 70.315 516.708 70.0159 516.084 69.6126L514.998 71.2917C515.747 71.7764 516.514 72.1534 517.299 72.415L517.931 70.5176ZM516.084 69.6126C515.444 69.1984 514.781 68.6936 514.095 68.0944L512.779 69.6009C513.526 70.2531 514.266 70.8179 514.998 71.2917L516.084 69.6126ZM514.1 68.0991C513.411 67.4889 512.679 66.7967 511.904 66.0214L510.49 67.4356C511.289 68.2345 512.05 68.9551 512.774 69.5962L514.1 68.0991ZM511.857 65.9778L508.073 62.6477L506.752 64.1492L510.536 67.4792L511.857 65.9778ZM506.413 63.3984V72.4653H508.413V63.3984H506.413Z" fill="white"/>
<path fill-rule="evenodd" clip-rule="evenodd" d="M3.77405 30.2083H45.4928V29.3438H19.0553V22.6562H3.77405V30.2083ZM53.6178 22.6562V30.2083H68.9459V22.6562H53.6178ZM91.399 22.6562V30.2083H106.68V22.6562H91.399ZM151.941 22.6562C151.965 23.0017 151.977 23.3559 151.977 23.7188C151.977 25.7188 151.587 27.4688 150.805 28.9688C150.579 29.4118 150.319 29.825 150.024 30.2083H166.113C166.832 28.0171 167.198 25.4997 167.211 22.6562H151.941Z" fill="#FC67D2" style="mix-blend-mode:multiply"/>
<path fill-rule="evenodd" clip-rule="evenodd" d="M3.77405 52.8646H19.0553V45.3125H3.77405V52.8646ZM53.6178 45.3125V46.6875C53.6178 48.8918 53.8115 50.9508 54.1988 52.8646H69.8363C69.2427 51.1659 68.9459 49.1069 68.9459 46.6875V45.3125H53.6178ZM91.399 45.3125V46.6875C91.399 49.1069 91.1023 51.1659 90.5087 52.8646H106.099C106.487 50.9508 106.68 48.8918 106.68 46.6875V45.3125H91.399ZM115.508 45.3125V52.8646H130.79V45.4688H140.828L144.566 52.8646H160.965L157.004 45.3125H115.508Z" fill="#FC67D2" style="mix-blend-mode:multiply"/>
<path fill-rule="evenodd" clip-rule="evenodd" d="M37.649 67.9688V70.125H19.0553H13.8522H3.77405V67.9688H37.649ZM65.6891 67.9688C65.9125 68.0811 66.1387 68.1905 66.3678 68.2969C70.3678 70.1406 74.9928 71.0625 80.2428 71.0625C85.4615 71.0625 90.0553 70.1406 94.024 68.2969C94.2531 68.1905 94.4792 68.0811 94.7025 67.9688H65.6891ZM115.508 67.9688V70.125H130.79V67.9688H115.508ZM152.2 67.9688L153.29 70.125H169.649V69.4219L168.887 67.9688H152.2Z" fill="#FC67D2" style="mix-blend-mode:multiply"/>
<path fill-rule="evenodd" clip-rule="evenodd" d="M35.875 58.3125V67.9688H8.82324V70.125H2V52.8646H17.2812V58.3125H35.875ZM17.2812 45.3125H2V30.2083H43.7188V40.7812H17.2812V45.3125ZM17.2812 22.6562V13.7344H35.875V1.875H17.2812H12.0781H2V22.6562H17.2812ZM89.625 1.875H104.906V22.6562H89.625V1.875ZM89.625 30.2083V45.3125H104.906V30.2083H89.625ZM88.3125 53.9062C88.4668 53.5756 88.6075 53.2283 88.7346 52.8646H104.325C103.779 55.5631 102.848 57.9729 101.531 60.0938C99.4406 63.5095 96.5729 66.1345 92.9284 67.9688H70.7383C70.9617 68.0811 71.1879 68.1905 71.417 68.2969C74.5242 69.7291 78.0085 70.605 81.8699 70.9247C80.7673 71.0166 79.6336 71.0625 78.4688 71.0625C73.2188 71.0625 68.5938 70.1406 64.5938 68.2969C60.625 66.4531 57.5 63.7188 55.2188 60.0938C53.9023 57.9729 52.971 55.5631 52.4248 52.8646H68.0622C68.1893 53.2283 68.33 53.5756 68.4844 53.9062C69.3906 55.75 70.6875 57.1094 72.375 57.9844C74.0625 58.8281 76.0938 59.25 78.4688 59.25C80.8438 59.25 82.8594 58.8281 84.5156 57.9844C86.2031 57.1094 87.4688 55.75 88.3125 53.9062ZM67.1719 45.3125H51.8438V30.2083H67.1719V45.3125ZM51.8438 22.6562H67.1719V13.7344H51.8438V22.6562ZM139.938 1.875H113.734V13.7344H129.016H139.938C142.188 13.7344 144.062 14.1406 145.562 14.9531C147.094 15.7344 148.25 16.875 149.031 18.375C149.676 19.6135 150.055 21.0438 150.168 22.6658L150.167 22.6562H165.437C165.437 22.6043 165.438 22.5522 165.438 22.5C165.438 18 164.406 14.2188 162.344 11.1562C160.281 8.09375 157.328 5.78125 153.484 4.21875C149.672 2.65625 145.156 1.875 139.938 1.875ZM164.338 30.2083H148.25C147.568 31.0958 146.704 31.8232 145.656 32.3906C144.156 33.2031 142.266 33.6094 139.984 33.6094L129.016 33.7969H113.734V36V45.3125H155.23L153.332 41.694C155.221 40.8148 156.928 39.7762 158.453 38.5781C160.672 36.8594 162.391 34.6875 163.609 32.0625C163.883 31.4728 164.126 30.8548 164.338 30.2083ZM113.734 70.125V52.8646H129.016V67.9688H120.558V70.125H113.734ZM151.516 70.125L142.792 52.8646H159.191L167.113 67.9688H157.249L158.339 70.125H151.516Z" fill="#FC67D2" style="mix-blend-mode:multiply"/>
<path fill-rule="evenodd" clip-rule="evenodd" d="M3.77405 30.2083H45.4928V29.3438H19.0553V22.6562H3.77405V30.2083ZM53.6178 22.6562V30.2083H68.9459V22.6562H53.6178ZM91.399 22.6562V30.2083H106.68V22.6562H91.399ZM151.941 22.6562C151.965 23.0017 151.977 23.3559 151.977 23.7188C151.977 25.7188 151.587 27.4688 150.805 28.9688C150.579 29.4118 150.319 29.825 150.024 30.2083H166.113C166.832 28.0171 167.198 25.4997 167.211 22.6562H151.941Z" fill="#FC67D2" style="mix-blend-mode:multiply"/>
<path fill-rule="evenodd" clip-rule="evenodd" d="M3.77405 52.8646H19.0553V45.3125H3.77405V52.8646ZM53.6178 45.3125V46.6875C53.6178 48.8918 53.8115 50.9508 54.1988 52.8646H69.8363C69.2427 51.1659 68.9459 49.1069 68.9459 46.6875V45.3125H53.6178ZM91.399 45.3125V46.6875C91.399 49.1069 91.1023 51.1659 90.5087 52.8646H106.099C106.487 50.9508 106.68 48.8918 106.68 46.6875V45.3125H91.399ZM115.508 45.3125V52.8646H130.79V45.4688H140.828L144.566 52.8646H160.965L157.004 45.3125H115.508Z" fill="#FC67D2" style="mix-blend-mode:multiply"/>
<path fill-rule="evenodd" clip-rule="evenodd" d="M37.649 67.9688V70.125H19.0553H13.8522H3.77405V67.9688H37.649ZM65.6891 67.9688C65.9125 68.0811 66.1387 68.1905 66.3678 68.2969C70.3678 70.1406 74.9928 71.0625 80.2428 71.0625C85.4615 71.0625 90.0553 70.1406 94.024 68.2969C94.2531 68.1905 94.4792 68.0811 94.7025 67.9688H65.6891ZM115.508 67.9688V70.125H130.79V67.9688H115.508ZM152.2 67.9688L153.29 70.125H169.649V69.4219L168.887 67.9688H152.2Z" fill="#FC67D2" style="mix-blend-mode:multiply"/>
<path fill-rule="evenodd" clip-rule="evenodd" d="M35.875 58.3125V67.9688H2V52.8646H17.2812V58.3125H35.875ZM17.2812 45.3125H2V30.2083H43.7188V40.7812H17.2812V45.3125ZM17.2812 22.6562V13.7344H35.875V1.875H17.2812H12.0781H2V22.6562H17.2812ZM89.625 1.875H104.906V22.6562H89.625V1.875ZM89.625 30.2083V45.3125H104.906V30.2083H89.625ZM88.3125 53.9062C88.4668 53.5756 88.6075 53.2283 88.7346 52.8646H104.325C103.779 55.5631 102.848 57.9729 101.531 60.0938C99.4406 63.5095 96.5729 66.1345 92.9284 67.9688H63.915C60.2671 66.1345 57.3684 63.5096 55.2188 60.0938C53.9023 57.9729 52.971 55.5631 52.4248 52.8646H68.0622C68.1893 53.2283 68.33 53.5756 68.4844 53.9062C69.3906 55.75 70.6875 57.1094 72.375 57.9844C74.0625 58.8281 76.0938 59.25 78.4688 59.25C80.8438 59.25 82.8594 58.8281 84.5156 57.9844C86.2031 57.1094 87.4688 55.75 88.3125 53.9062ZM67.1719 45.3125H51.8438V30.2083H67.1719V45.3125ZM51.8438 22.6562H67.1719V13.7344H51.8438V22.6562ZM139.938 1.875H113.734V13.7344H129.016H139.938C142.188 13.7344 144.062 14.1406 145.562 14.9531C147.094 15.7344 148.25 16.875 149.031 18.375C149.676 19.6135 150.055 21.0438 150.168 22.6658L150.167 22.6562H165.437C165.437 22.6043 165.438 22.5522 165.438 22.5C165.438 18 164.406 14.2188 162.344 11.1562C160.281 8.09375 157.328 5.78125 153.484 4.21875C149.672 2.65625 145.156 1.875 139.938 1.875ZM164.338 30.2083H148.25C147.568 31.0958 146.704 31.8232 145.656 32.3906C144.156 33.2031 142.266 33.6094 139.984 33.6094L129.016 33.7969H113.734V36V45.3125H155.23L153.332 41.694C155.221 40.8148 156.928 39.7762 158.453 38.5781C160.672 36.8594 162.391 34.6875 163.609 32.0625C163.883 31.4728 164.126 30.8548 164.338 30.2083ZM113.734 67.9688V52.8646H129.016V67.9688H113.734ZM150.426 67.9688L142.792 52.8646H159.191L167.113 67.9688H150.426Z" fill="#FC67D2" style="mix-blend-mode:multiply"/>
<path fill-rule="evenodd" clip-rule="evenodd" d="M3.77405 30.2083H45.4928V29.3438H19.0553V22.6562H3.77405V30.2083ZM53.6178 22.6562V30.2083H68.9459V22.6562H53.6178ZM91.399 22.6562V30.2083H106.68V22.6562H91.399ZM151.941 22.6562C151.965 23.0017 151.977 23.3559 151.977 23.7188C151.977 25.7188 151.587 27.4688 150.805 28.9688C150.579 29.4118 150.319 29.825 150.024 30.2083H166.113C166.832 28.0171 167.198 25.4997 167.211 22.6562H151.941Z" fill="#FC67D2" style="mix-blend-mode:multiply"/>
<path fill-rule="evenodd" clip-rule="evenodd" d="M3.77405 52.8646H19.0553V45.3125H3.77405V52.8646ZM53.6178 45.3125V46.6875C53.6178 48.8918 53.8115 50.9508 54.1988 52.8646H69.8363C69.2427 51.1659 68.9459 49.1069 68.9459 46.6875V45.3125H53.6178ZM91.399 45.3125V46.6875C91.399 49.1069 91.1023 51.1659 90.5087 52.8646H106.099C106.487 50.9508 106.68 48.8918 106.68 46.6875V45.3125H91.399ZM115.508 45.3125V52.8646H130.79V45.4688H140.828L144.566 52.8646H160.965L157.004 45.3125H115.508Z" fill="#FC67D2" style="mix-blend-mode:multiply"/>
<path fill-rule="evenodd" clip-rule="evenodd" d="M37.649 67.9688V70.125H19.0553H13.8522H3.77405V67.9688H37.649ZM65.6891 67.9688C65.9125 68.0811 66.1387 68.1905 66.3678 68.2969C70.3678 70.1406 74.9928 71.0625 80.2428 71.0625C85.4615 71.0625 90.0553 70.1406 94.024 68.2969C94.2531 68.1905 94.4792 68.0811 94.7025 67.9688H65.6891ZM115.508 67.9688V70.125H130.79V67.9688H115.508ZM152.2 67.9688L153.29 70.125H169.649V69.4219L168.887 67.9688H152.2Z" fill="#FC67D2" style="mix-blend-mode:multiply"/>
<path fill-rule="evenodd" clip-rule="evenodd" d="M35.875 58.3125V67.9688H8.82324V70.125H2V52.8646H17.2812V58.3125H35.875ZM17.2812 45.3125H2V30.2083H43.7188V40.7812H17.2812V45.3125ZM17.2812 22.6562V13.7344H35.875V1.875H17.2812H12.0781H2V22.6562H17.2812ZM89.625 1.875H104.906V22.6562H89.625V1.875ZM89.625 30.2083V45.3125H104.906V30.2083H89.625ZM88.3125 53.9062C88.4668 53.5756 88.6075 53.2283 88.7346 52.8646H104.325C103.779 55.5631 102.848 57.9729 101.531 60.0938C99.4406 63.5095 96.5729 66.1345 92.9284 67.9688H70.7383C70.9617 68.0811 71.1879 68.1905 71.417 68.2969C74.5242 69.7291 78.0085 70.605 81.8699 70.9247C80.7673 71.0166 79.6336 71.0625 78.4688 71.0625C73.2188 71.0625 68.5938 70.1406 64.5938 68.2969C60.625 66.4531 57.5 63.7188 55.2188 60.0938C53.9023 57.9729 52.971 55.5631 52.4248 52.8646H68.0622C68.1893 53.2283 68.33 53.5756 68.4844 53.9062C69.3906 55.75 70.6875 57.1094 72.375 57.9844C74.0625 58.8281 76.0938 59.25 78.4688 59.25C80.8438 59.25 82.8594 58.8281 84.5156 57.9844C86.2031 57.1094 87.4688 55.75 88.3125 53.9062ZM67.1719 45.3125H51.8438V30.2083H67.1719V45.3125ZM51.8438 22.6562H67.1719V13.7344H51.8438V22.6562ZM139.938 1.875H113.734V13.7344H129.016H139.938C142.188 13.7344 144.062 14.1406 145.562 14.9531C147.094 15.7344 148.25 16.875 149.031 18.375C149.676 19.6135 150.055 21.0438 150.168 22.6658L150.167 22.6562H165.437C165.437 22.6043 165.438 22.5522 165.438 22.5C165.438 18 164.406 14.2188 162.344 11.1562C160.281 8.09375 157.328 5.78125 153.484 4.21875C149.672 2.65625 145.156 1.875 139.938 1.875ZM164.338 30.2083H148.25C147.568 31.0958 146.704 31.8232 145.656 32.3906C144.156 33.2031 142.266 33.6094 139.984 33.6094L129.016 33.7969H113.734V36V45.3125H155.23L153.332 41.694C155.221 40.8148 156.928 39.7762 158.453 38.5781C160.672 36.8594 162.391 34.6875 163.609 32.0625C163.883 31.4728 164.126 30.8548 164.338 30.2083ZM113.734 70.125V52.8646H129.016V67.9688H120.558V70.125H113.734ZM151.516 70.125L142.792 52.8646H159.191L167.113 67.9688H157.249L158.339 70.125H151.516Z" fill="#FC67D2" style="mix-blend-mode:multiply"/>
<path fill-rule="evenodd" clip-rule="evenodd" d="M3.77405 30.2083H45.4928V29.3438H19.0553V22.6562H3.77405V30.2083ZM53.6178 22.6562V30.2083H68.9459V22.6562H53.6178ZM91.399 22.6562V30.2083H106.68V22.6562H91.399ZM151.941 22.6562C151.965 23.0017 151.977 23.3559 151.977 23.7188C151.977 25.7188 151.587 27.4688 150.805 28.9688C150.579 29.4118 150.319 29.825 150.024 30.2083H166.113C166.832 28.0171 167.198 25.4997 167.211 22.6562H151.941Z" fill="#FC67D2" style="mix-blend-mode:multiply"/>
<path fill-rule="evenodd" clip-rule="evenodd" d="M3.77405 52.8646H19.0553V45.3125H3.77405V52.8646ZM53.6178 45.3125V46.6875C53.6178 48.8918 53.8115 50.9508 54.1988 52.8646H69.8363C69.2427 51.1659 68.9459 49.1069 68.9459 46.6875V45.3125H53.6178ZM91.399 45.3125V46.6875C91.399 49.1069 91.1023 51.1659 90.5087 52.8646H106.099C106.487 50.9508 106.68 48.8918 106.68 46.6875V45.3125H91.399ZM115.508 45.3125V52.8646H130.79V45.4688H140.828L144.566 52.8646H160.965L157.004 45.3125H115.508Z" fill="#FC67D2" style="mix-blend-mode:multiply"/>
<path fill-rule="evenodd" clip-rule="evenodd" d="M37.649 67.9688V70.125H19.0553H13.8522H3.77405V67.9688H37.649ZM65.6891 67.9688C65.9125 68.0811 66.1387 68.1905 66.3678 68.2969C70.3678 70.1406 74.9928 71.0625 80.2428 71.0625C85.4615 71.0625 90.0553 70.1406 94.024 68.2969C94.2531 68.1905 94.4792 68.0811 94.7025 67.9688H65.6891ZM115.508 67.9688V70.125H130.79V67.9688H115.508ZM152.2 67.9688L153.29 70.125H169.649V69.4219L168.887 67.9688H152.2Z" fill="#FC67D2" style="mix-blend-mode:multiply"/>
<path fill-rule="evenodd" clip-rule="evenodd" d="M35.875 58.3125V67.9688H2V52.8646H17.2812V58.3125H35.875ZM17.2812 45.3125H2V30.2083H43.7188V40.7812H17.2812V45.3125ZM17.2812 22.6562V13.7344H35.875V1.875H17.2812H12.0781H2V22.6562H17.2812ZM89.625 1.875H104.906V22.6562H89.625V1.875ZM89.625 30.2083V45.3125H104.906V30.2083H89.625ZM88.3125 53.9062C88.4668 53.5756 88.6075 53.2283 88.7346 52.8646H104.325C103.779 55.5631 102.848 57.9729 101.531 60.0938C99.4406 63.5095 96.5729 66.1345 92.9284 67.9688H63.915C60.2671 66.1345 57.3684 63.5096 55.2188 60.0938C53.9023 57.9729 52.971 55.5631 52.4248 52.8646H68.0622C68.1893 53.2283 68.33 53.5756 68.4844 53.9062C69.3906 55.75 70.6875 57.1094 72.375 57.9844C74.0625 58.8281 76.0938 59.25 78.4688 59.25C80.8438 59.25 82.8594 58.8281 84.5156 57.9844C86.2031 57.1094 87.4688 55.75 88.3125 53.9062ZM67.1719 45.3125H51.8438V30.2083H67.1719V45.3125ZM51.8438 22.6562H67.1719V13.7344H51.8438V22.6562ZM139.938 1.875H113.734V13.7344H129.016H139.938C142.188 13.7344 144.062 14.1406 145.562 14.9531C147.094 15.7344 148.25 16.875 149.031 18.375C149.676 19.6135 150.055 21.0438 150.168 22.6658L150.167 22.6562H165.437C165.437 22.6043 165.438 22.5522 165.438 22.5C165.438 18 164.406 14.2188 162.344 11.1562C160.281 8.09375 157.328 5.78125 153.484 4.21875C149.672 2.65625 145.156 1.875 139.938 1.875ZM164.338 30.2083H148.25C147.568 31.0958 146.704 31.8232 145.656 32.3906C144.156 33.2031 142.266 33.6094 139.984 33.6094L129.016 33.7969H113.734V36V45.3125H155.23L153.332 41.694C155.221 40.8148 156.928 39.7762 158.453 38.5781C160.672 36.8594 162.391 34.6875 163.609 32.0625C163.883 31.4728 164.126 30.8548 164.338 30.2083ZM113.734 67.9688V52.8646H129.016V67.9688H113.734ZM150.426 67.9688L142.792 52.8646H159.191L167.113 67.9688H150.426Z" fill="#FC67D2" style="mix-blend-mode:multiply"/>
</svg>
